%TF.GenerationSoftware,KiCad,Pcbnew,(5.1.9)-1*%
%TF.CreationDate,2022-09-27T04:31:38-04:00*%
%TF.ProjectId,Cocoloca-plug-coco,436f636f-6c6f-4636-912d-706c75672d63,rev?*%
%TF.SameCoordinates,Original*%
%TF.FileFunction,Legend,Top*%
%TF.FilePolarity,Positive*%
%FSLAX46Y46*%
G04 Gerber Fmt 4.6, Leading zero omitted, Abs format (unit mm)*
G04 Created by KiCad (PCBNEW (5.1.9)-1) date 2022-09-27 04:31:38*
%MOMM*%
%LPD*%
G01*
G04 APERTURE LIST*
%ADD10C,0.120000*%
%ADD11C,0.150000*%
G04 APERTURE END LIST*
D10*
%TO.C,COCO1*%
X133480000Y-76780000D02*
G75*
G02*
X131480000Y-76780000I-1000000J0D01*
G01*
X131480000Y-76780000D02*
X130230000Y-76780000D01*
X130230000Y-76780000D02*
X130230000Y-102300000D01*
X130230000Y-102300000D02*
X134730000Y-102300000D01*
X134730000Y-102300000D02*
X134730000Y-76780000D01*
X134730000Y-76780000D02*
X133480000Y-76780000D01*
D11*
X130765714Y-76137142D02*
X130718095Y-76184761D01*
X130575238Y-76232380D01*
X130480000Y-76232380D01*
X130337142Y-76184761D01*
X130241904Y-76089523D01*
X130194285Y-75994285D01*
X130146666Y-75803809D01*
X130146666Y-75660952D01*
X130194285Y-75470476D01*
X130241904Y-75375238D01*
X130337142Y-75280000D01*
X130480000Y-75232380D01*
X130575238Y-75232380D01*
X130718095Y-75280000D01*
X130765714Y-75327619D01*
X131384761Y-75232380D02*
X131575238Y-75232380D01*
X131670476Y-75280000D01*
X131765714Y-75375238D01*
X131813333Y-75565714D01*
X131813333Y-75899047D01*
X131765714Y-76089523D01*
X131670476Y-76184761D01*
X131575238Y-76232380D01*
X131384761Y-76232380D01*
X131289523Y-76184761D01*
X131194285Y-76089523D01*
X131146666Y-75899047D01*
X131146666Y-75565714D01*
X131194285Y-75375238D01*
X131289523Y-75280000D01*
X131384761Y-75232380D01*
X132813333Y-76137142D02*
X132765714Y-76184761D01*
X132622857Y-76232380D01*
X132527619Y-76232380D01*
X132384761Y-76184761D01*
X132289523Y-76089523D01*
X132241904Y-75994285D01*
X132194285Y-75803809D01*
X132194285Y-75660952D01*
X132241904Y-75470476D01*
X132289523Y-75375238D01*
X132384761Y-75280000D01*
X132527619Y-75232380D01*
X132622857Y-75232380D01*
X132765714Y-75280000D01*
X132813333Y-75327619D01*
X133432380Y-75232380D02*
X133622857Y-75232380D01*
X133718095Y-75280000D01*
X133813333Y-75375238D01*
X133860952Y-75565714D01*
X133860952Y-75899047D01*
X133813333Y-76089523D01*
X133718095Y-76184761D01*
X133622857Y-76232380D01*
X133432380Y-76232380D01*
X133337142Y-76184761D01*
X133241904Y-76089523D01*
X133194285Y-75899047D01*
X133194285Y-75565714D01*
X133241904Y-75375238D01*
X133337142Y-75280000D01*
X133432380Y-75232380D01*
X134813333Y-76232380D02*
X134241904Y-76232380D01*
X134527619Y-76232380D02*
X134527619Y-75232380D01*
X134432380Y-75375238D01*
X134337142Y-75470476D01*
X134241904Y-75518095D01*
%TD*%
M02*
