M48
INCH,TZ
T1C0.0315
%
G90
G05
T1
X50657Y-30752
X50657Y-31752
X50657Y-32752
X50657Y-33752
X50657Y-34752
X50657Y-35752
X50657Y-36752
X50657Y-37752
X50657Y-38752
X50657Y-39752
X53657Y-30752
X53657Y-31752
X53657Y-32752
X53657Y-33752
X53657Y-34752
X53657Y-35752
X53657Y-36752
X53657Y-37752
X53657Y-38752
X53657Y-39752
T0
M30
