M48
; DRILL file {KiCad (5.1.9)-1} date 09/27/22 04:31:36
; FORMAT={-:-/ absolute / inch / decimal}
; #@! TF.CreationDate,2022-09-27T04:31:36-04:00
; #@! TF.GenerationSoftware,Kicad,Pcbnew,(5.1.9)-1
; #@! TF.FileFunction,Plated,1,2,PTH
FMAT,2
INCH
T1C0.0315
%
G90
G05
T1
X5.0657Y-3.0752
X5.0657Y-3.1752
X5.0657Y-3.2752
X5.0657Y-3.3752
X5.0657Y-3.4752
X5.0657Y-3.5752
X5.0657Y-3.6752
X5.0657Y-3.7752
X5.0657Y-3.8752
X5.0657Y-3.9752
X5.3657Y-3.0752
X5.3657Y-3.1752
X5.3657Y-3.2752
X5.3657Y-3.3752
X5.3657Y-3.4752
X5.3657Y-3.5752
X5.3657Y-3.6752
X5.3657Y-3.7752
X5.3657Y-3.8752
X5.3657Y-3.9752
T0
M30
