0
SECTION
2
HEADER
9
$EXTMIN
10
0.3330078125
20
0
30
0.5
9
$EXTMAX
10
16.4951171875
20
1.166015625
30
0.5
0
ENDSEC
0
SECTION
2
TABLES
0
TABLE
2
VPORT
0
VPORT
2
*ACTIVE
41
  1.000000
0
ENDTAB
0
TABLE
2
LAYER
0
LAYER
2
0
62
0
0
ENDTAB
0
ENDSEC
0
SECTION
2
BLOCKS
0
ENDSEC
0
SECTION
2
ENTITIES
0
LINE
8
0
62
0
10
0.333008
20
0.833008
30
0.500000
11
0.333008
21
1.000000
31
0.500000
0
LINE
8
0
62
0
10
0.333008
20
1.000000
30
0.500000
11
0.833008
21
1.000000
31
0.500000
0
LINE
8
0
62
0
10
0.833008
20
1.000000
30
0.500000
11
0.833008
21
0.166992
31
0.500000
0
LINE
8
0
62
0
10
0.833008
20
0.166992
30
0.500000
11
1.000000
21
0.166992
31
0.500000
0
LINE
8
0
62
0
10
1.000000
20
0.166992
30
0.500000
11
1.000000
21
0.000000
31
0.500000
0
LINE
8
0
62
0
10
1.000000
20
0.000000
30
0.500000
11
0.333008
21
0.000000
31
0.500000
0
LINE
8
0
62
0
10
0.333008
20
0.000000
30
0.500000
11
0.333008
21
0.166992
31
0.500000
0
LINE
8
0
62
0
10
0.333008
20
0.166992
30
0.500000
11
0.500000
21
0.166992
31
0.500000
0
LINE
8
0
62
0
10
0.500000
20
0.166992
30
0.500000
11
0.500000
21
0.833008
31
0.500000
0
LINE
8
0
62
0
10
0.500000
20
0.833008
30
0.500000
11
0.333008
21
0.833008
31
0.500000
0
LINE
8
0
62
0
10
1.500000
20
0.166992
30
0.500000
11
1.500000
21
0.666016
31
0.500000
0
LINE
8
0
62
0
10
1.500000
20
0.666016
30
0.500000
11
1.666016
21
0.666016
31
0.500000
0
LINE
8
0
62
0
10
1.666016
20
0.666016
30
0.500000
11
1.666016
21
0.833008
31
0.500000
0
LINE
8
0
62
0
10
1.666016
20
0.833008
30
0.500000
11
2.333008
21
0.833008
31
0.500000
0
LINE
8
0
62
0
10
2.333008
20
0.833008
30
0.500000
11
2.333008
21
0.666016
31
0.500000
0
LINE
8
0
62
0
10
2.333008
20
0.666016
30
0.500000
11
2.499023
21
0.666016
31
0.500000
0
LINE
8
0
62
0
10
2.499023
20
0.666016
30
0.500000
11
2.499023
21
0.166992
31
0.500000
0
LINE
8
0
62
0
10
2.499023
20
0.166992
30
0.500000
11
2.333008
21
0.166992
31
0.500000
0
LINE
8
0
62
0
10
2.333008
20
0.166992
30
0.500000
11
2.333008
21
0.000000
31
0.500000
0
LINE
8
0
62
0
10
2.333008
20
0.000000
30
0.500000
11
1.666016
21
0.000000
31
0.500000
0
LINE
8
0
62
0
10
1.666016
20
0.000000
30
0.500000
11
1.666016
21
0.166992
31
0.500000
0
LINE
8
0
62
0
10
1.666016
20
0.166992
30
0.500000
11
1.500000
21
0.166992
31
0.500000
0
LINE
8
0
62
0
10
1.833008
20
0.166992
30
0.500000
11
1.833008
21
0.666016
31
0.500000
0
LINE
8
0
62
0
10
1.833008
20
0.666016
30
0.500000
11
2.166016
21
0.666016
31
0.500000
0
LINE
8
0
62
0
10
2.166016
20
0.666016
30
0.500000
11
2.166016
21
0.166992
31
0.500000
0
LINE
8
0
62
0
10
2.166016
20
0.166992
30
0.500000
11
1.833008
21
0.166992
31
0.500000
0
LINE
8
0
62
0
10
2.833008
20
0.333008
30
0.500000
11
2.833008
21
0.833008
31
0.500000
0
LINE
8
0
62
0
10
2.833008
20
0.833008
30
0.500000
11
3.166016
21
0.833008
31
0.500000
0
LINE
8
0
62
0
10
3.166016
20
0.833008
30
0.500000
11
3.166016
21
0.500000
31
0.500000
0
LINE
8
0
62
0
10
3.166016
20
0.500000
30
0.500000
11
3.332031
21
0.500000
31
0.500000
0
LINE
8
0
62
0
10
3.332031
20
0.500000
30
0.500000
11
3.332031
21
0.666016
31
0.500000
0
LINE
8
0
62
0
10
3.332031
20
0.666016
30
0.500000
11
3.499023
21
0.666016
31
0.500000
0
LINE
8
0
62
0
10
3.499023
20
0.666016
30
0.500000
11
3.499023
21
0.500000
31
0.500000
0
LINE
8
0
62
0
10
3.499023
20
0.500000
30
0.500000
11
3.666016
21
0.500000
31
0.500000
0
LINE
8
0
62
0
10
3.666016
20
0.500000
30
0.500000
11
3.666016
21
0.833008
31
0.500000
0
LINE
8
0
62
0
10
3.666016
20
0.833008
30
0.500000
11
3.999023
21
0.833008
31
0.500000
0
LINE
8
0
62
0
10
3.999023
20
0.833008
30
0.500000
11
3.999023
21
0.333008
31
0.500000
0
LINE
8
0
62
0
10
3.999023
20
0.333008
30
0.500000
11
3.832031
21
0.333008
31
0.500000
0
LINE
8
0
62
0
10
3.832031
20
0.333008
30
0.500000
11
3.832031
21
0.000000
31
0.500000
0
LINE
8
0
62
0
10
3.832031
20
0.000000
30
0.500000
11
3.499023
21
0.000000
31
0.500000
0
LINE
8
0
62
0
10
3.499023
20
0.000000
30
0.500000
11
3.499023
21
0.166992
31
0.500000
0
LINE
8
0
62
0
10
3.499023
20
0.166992
30
0.500000
11
3.332031
21
0.166992
31
0.500000
0
LINE
8
0
62
0
10
3.332031
20
0.166992
30
0.500000
11
3.332031
21
0.000000
31
0.500000
0
LINE
8
0
62
0
10
3.332031
20
0.000000
30
0.500000
11
2.999023
21
0.000000
31
0.500000
0
LINE
8
0
62
0
10
2.999023
20
0.000000
30
0.500000
11
2.999023
21
0.333008
31
0.500000
0
LINE
8
0
62
0
10
2.999023
20
0.333008
30
0.500000
11
2.833008
21
0.333008
31
0.500000
0
LINE
8
0
62
0
10
4.332031
20
0.833008
30
0.500000
11
4.332031
21
1.000000
31
0.500000
0
LINE
8
0
62
0
10
4.332031
20
1.000000
30
0.500000
11
4.832031
21
1.000000
31
0.500000
0
LINE
8
0
62
0
10
4.832031
20
1.000000
30
0.500000
11
4.832031
21
0.166992
31
0.500000
0
LINE
8
0
62
0
10
4.832031
20
0.166992
30
0.500000
11
4.999023
21
0.166992
31
0.500000
0
LINE
8
0
62
0
10
4.999023
20
0.166992
30
0.500000
11
4.999023
21
0.000000
31
0.500000
0
LINE
8
0
62
0
10
4.999023
20
0.000000
30
0.500000
11
4.332031
21
0.000000
31
0.500000
0
LINE
8
0
62
0
10
4.332031
20
0.000000
30
0.500000
11
4.332031
21
0.166992
31
0.500000
0
LINE
8
0
62
0
10
4.332031
20
0.166992
30
0.500000
11
4.499023
21
0.166992
31
0.500000
0
LINE
8
0
62
0
10
4.499023
20
0.166992
30
0.500000
11
4.499023
21
0.833008
31
0.500000
0
LINE
8
0
62
0
10
4.499023
20
0.833008
30
0.500000
11
4.332031
21
0.833008
31
0.500000
0
LINE
8
0
62
0
10
5.499023
20
0.166992
30
0.500000
11
5.499023
21
0.666016
31
0.500000
0
LINE
8
0
62
0
10
5.499023
20
0.666016
30
0.500000
11
5.665039
21
0.666016
31
0.500000
0
LINE
8
0
62
0
10
5.665039
20
0.666016
30
0.500000
11
5.665039
21
0.833008
31
0.500000
0
LINE
8
0
62
0
10
5.665039
20
0.833008
30
0.500000
11
6.332031
21
0.833008
31
0.500000
0
LINE
8
0
62
0
10
6.332031
20
0.833008
30
0.500000
11
6.332031
21
0.666016
31
0.500000
0
LINE
8
0
62
0
10
6.332031
20
0.666016
30
0.500000
11
6.498047
21
0.666016
31
0.500000
0
LINE
8
0
62
0
10
6.498047
20
0.666016
30
0.500000
11
6.498047
21
0.333008
31
0.500000
0
LINE
8
0
62
0
10
6.498047
20
0.333008
30
0.500000
11
5.832031
21
0.333008
31
0.500000
0
LINE
8
0
62
0
10
5.832031
20
0.333008
30
0.500000
11
5.832031
21
0.166992
31
0.500000
0
LINE
8
0
62
0
10
5.832031
20
0.166992
30
0.500000
11
6.332031
21
0.166992
31
0.500000
0
LINE
8
0
62
0
10
6.332031
20
0.166992
30
0.500000
11
6.332031
21
0.000000
31
0.500000
0
LINE
8
0
62
0
10
6.332031
20
0.000000
30
0.500000
11
5.665039
21
0.000000
31
0.500000
0
LINE
8
0
62
0
10
5.665039
20
0.000000
30
0.500000
11
5.665039
21
0.166992
31
0.500000
0
LINE
8
0
62
0
10
5.665039
20
0.166992
30
0.500000
11
5.499023
21
0.166992
31
0.500000
0
LINE
8
0
62
0
10
5.832031
20
0.666016
30
0.500000
11
6.165039
21
0.666016
31
0.500000
0
LINE
8
0
62
0
10
6.165039
20
0.666016
30
0.500000
11
6.165039
21
0.500000
31
0.500000
0
LINE
8
0
62
0
10
6.165039
20
0.500000
30
0.500000
11
5.832031
21
0.500000
31
0.500000
0
LINE
8
0
62
0
10
5.832031
20
0.500000
30
0.500000
11
5.832031
21
0.666016
31
0.500000
0
LINE
8
0
62
0
10
6.832031
20
0.333008
30
0.500000
11
6.832031
21
0.833008
31
0.500000
0
LINE
8
0
62
0
10
6.832031
20
0.833008
30
0.500000
11
7.165039
21
0.833008
31
0.500000
0
LINE
8
0
62
0
10
7.165039
20
0.833008
30
0.500000
11
7.165039
21
0.333008
31
0.500000
0
LINE
8
0
62
0
10
7.165039
20
0.333008
30
0.500000
11
7.498047
21
0.333008
31
0.500000
0
LINE
8
0
62
0
10
7.498047
20
0.333008
30
0.500000
11
7.498047
21
0.833008
31
0.500000
0
LINE
8
0
62
0
10
7.498047
20
0.833008
30
0.500000
11
7.831055
21
0.833008
31
0.500000
0
LINE
8
0
62
0
10
7.831055
20
0.833008
30
0.500000
11
7.831055
21
0.333008
31
0.500000
0
LINE
8
0
62
0
10
7.831055
20
0.333008
30
0.500000
11
7.665039
21
0.333008
31
0.500000
0
LINE
8
0
62
0
10
7.665039
20
0.333008
30
0.500000
11
7.665039
21
0.166992
31
0.500000
0
LINE
8
0
62
0
10
7.665039
20
0.166992
30
0.500000
11
7.498047
21
0.166992
31
0.500000
0
LINE
8
0
62
0
10
7.498047
20
0.166992
30
0.500000
11
7.498047
21
0.000000
31
0.500000
0
LINE
8
0
62
0
10
7.498047
20
0.000000
30
0.500000
11
7.165039
21
0.000000
31
0.500000
0
LINE
8
0
62
0
10
7.165039
20
0.000000
30
0.500000
11
7.165039
21
0.166992
31
0.500000
0
LINE
8
0
62
0
10
7.165039
20
0.166992
30
0.500000
11
6.998047
21
0.166992
31
0.500000
0
LINE
8
0
62
0
10
6.998047
20
0.166992
30
0.500000
11
6.998047
21
0.333008
31
0.500000
0
LINE
8
0
62
0
10
6.998047
20
0.333008
30
0.500000
11
6.832031
21
0.333008
31
0.500000
0
LINE
8
0
62
0
10
8.165039
20
0.166992
30
0.500000
11
8.165039
21
0.666016
31
0.500000
0
LINE
8
0
62
0
10
8.165039
20
0.666016
30
0.500000
11
8.331055
21
0.666016
31
0.500000
0
LINE
8
0
62
0
10
8.331055
20
0.666016
30
0.500000
11
8.331055
21
0.833008
31
0.500000
0
LINE
8
0
62
0
10
8.331055
20
0.833008
30
0.500000
11
8.998047
21
0.833008
31
0.500000
0
LINE
8
0
62
0
10
8.998047
20
0.833008
30
0.500000
11
8.998047
21
0.666016
31
0.500000
0
LINE
8
0
62
0
10
8.998047
20
0.666016
30
0.500000
11
9.164063
21
0.666016
31
0.500000
0
LINE
8
0
62
0
10
9.164063
20
0.666016
30
0.500000
11
9.164063
21
0.333008
31
0.500000
0
LINE
8
0
62
0
10
9.164063
20
0.333008
30
0.500000
11
8.498047
21
0.333008
31
0.500000
0
LINE
8
0
62
0
10
8.498047
20
0.333008
30
0.500000
11
8.498047
21
0.166992
31
0.500000
0
LINE
8
0
62
0
10
8.498047
20
0.166992
30
0.500000
11
8.998047
21
0.166992
31
0.500000
0
LINE
8
0
62
0
10
8.998047
20
0.166992
30
0.500000
11
8.998047
21
0.000000
31
0.500000
0
LINE
8
0
62
0
10
8.998047
20
0.000000
30
0.500000
11
8.331055
21
0.000000
31
0.500000
0
LINE
8
0
62
0
10
8.331055
20
0.000000
30
0.500000
11
8.331055
21
0.166992
31
0.500000
0
LINE
8
0
62
0
10
8.331055
20
0.166992
30
0.500000
11
8.165039
21
0.166992
31
0.500000
0
LINE
8
0
62
0
10
8.498047
20
0.666016
30
0.500000
11
8.831055
21
0.666016
31
0.500000
0
LINE
8
0
62
0
10
8.831055
20
0.666016
30
0.500000
11
8.831055
21
0.500000
31
0.500000
0
LINE
8
0
62
0
10
8.831055
20
0.500000
30
0.500000
11
8.498047
21
0.500000
31
0.500000
0
LINE
8
0
62
0
10
8.498047
20
0.500000
30
0.500000
11
8.498047
21
0.666016
31
0.500000
0
LINE
8
0
62
0
10
9.664063
20
0.833008
30
0.500000
11
9.664063
21
1.000000
31
0.500000
0
LINE
8
0
62
0
10
9.664063
20
1.000000
30
0.500000
11
10.164060
21
1.000000
31
0.500000
0
LINE
8
0
62
0
10
10.164060
20
1.000000
30
0.500000
11
10.164060
21
0.166992
31
0.500000
0
LINE
8
0
62
0
10
10.164060
20
0.166992
30
0.500000
11
10.331050
21
0.166992
31
0.500000
0
LINE
8
0
62
0
10
10.331050
20
0.166992
30
0.500000
11
10.331050
21
0.000000
31
0.500000
0
LINE
8
0
62
0
10
10.331050
20
0.000000
30
0.500000
11
9.664063
21
0.000000
31
0.500000
0
LINE
8
0
62
0
10
9.664063
20
0.000000
30
0.500000
11
9.664063
21
0.166992
31
0.500000
0
LINE
8
0
62
0
10
9.664063
20
0.166992
30
0.500000
11
9.831055
21
0.166992
31
0.500000
0
LINE
8
0
62
0
10
9.831055
20
0.166992
30
0.500000
11
9.831055
21
0.833008
31
0.500000
0
LINE
8
0
62
0
10
9.831055
20
0.833008
30
0.500000
11
9.664063
21
0.833008
31
0.500000
0
LINE
8
0
62
0
10
11.497070
20
0.833008
30
0.500000
11
11.497070
21
1.000000
31
0.500000
0
LINE
8
0
62
0
10
11.497070
20
1.000000
30
0.500000
11
11.663090
21
1.000000
31
0.500000
0
LINE
8
0
62
0
10
11.663090
20
1.000000
30
0.500000
11
11.663090
21
1.166016
31
0.500000
0
LINE
8
0
62
0
10
11.663090
20
1.166016
30
0.500000
11
12.330080
21
1.166016
31
0.500000
0
LINE
8
0
62
0
10
12.330080
20
1.166016
30
0.500000
11
12.330080
21
1.000000
31
0.500000
0
LINE
8
0
62
0
10
12.330080
20
1.000000
30
0.500000
11
12.496090
21
1.000000
31
0.500000
0
LINE
8
0
62
0
10
12.496090
20
1.000000
30
0.500000
11
12.496090
21
0.666016
31
0.500000
0
LINE
8
0
62
0
10
12.496090
20
0.666016
30
0.500000
11
12.330080
21
0.666016
31
0.500000
0
LINE
8
0
62
0
10
12.330080
20
0.666016
30
0.500000
11
12.330080
21
0.500000
31
0.500000
0
LINE
8
0
62
0
10
12.330080
20
0.500000
30
0.500000
11
11.996090
21
0.500000
31
0.500000
0
LINE
8
0
62
0
10
11.996090
20
0.500000
30
0.500000
11
11.996090
21
0.333008
31
0.500000
0
LINE
8
0
62
0
10
11.996090
20
0.333008
30
0.500000
11
11.830080
21
0.333984
31
0.500000
0
LINE
8
0
62
0
10
11.830080
20
0.333984
30
0.500000
11
11.830080
21
0.166992
31
0.500000
0
LINE
8
0
62
0
10
11.830080
20
0.166992
30
0.500000
11
12.496090
21
0.166992
31
0.500000
0
LINE
8
0
62
0
10
12.496090
20
0.166992
30
0.500000
11
12.496090
21
0.000000
31
0.500000
0
LINE
8
0
62
0
10
12.496090
20
0.000000
30
0.500000
11
11.497070
21
0.000000
31
0.500000
0
LINE
8
0
62
0
10
11.497070
20
0.000000
30
0.500000
11
11.497070
21
0.333008
31
0.500000
0
LINE
8
0
62
0
10
11.497070
20
0.333008
30
0.500000
11
11.663090
21
0.333008
31
0.500000
0
LINE
8
0
62
0
10
11.663090
20
0.333008
30
0.500000
11
11.663090
21
0.500000
31
0.500000
0
LINE
8
0
62
0
10
11.663090
20
0.500000
30
0.500000
11
11.996090
21
0.500000
31
0.500000
0
LINE
8
0
62
0
10
11.996090
20
0.500000
30
0.500000
11
11.996090
21
0.666016
31
0.500000
0
LINE
8
0
62
0
10
11.996090
20
0.666016
30
0.500000
11
12.163090
21
0.666016
31
0.500000
0
LINE
8
0
62
0
10
12.163090
20
0.666016
30
0.500000
11
12.163090
21
1.000000
31
0.500000
0
LINE
8
0
62
0
10
12.163090
20
1.000000
30
0.500000
11
11.830080
21
1.000000
31
0.500000
0
LINE
8
0
62
0
10
11.830080
20
1.000000
30
0.500000
11
11.830080
21
0.833008
31
0.500000
0
LINE
8
0
62
0
10
11.830080
20
0.833008
30
0.500000
11
11.497070
21
0.833008
31
0.500000
0
LINE
8
0
62
0
10
12.830080
20
1.000000
30
0.500000
11
12.996090
21
1.000000
31
0.500000
0
LINE
8
0
62
0
10
12.996090
20
1.000000
30
0.500000
11
12.996090
21
1.166016
31
0.500000
0
LINE
8
0
62
0
10
12.996090
20
1.166016
30
0.500000
11
13.663090
21
1.166016
31
0.500000
0
LINE
8
0
62
0
10
13.663090
20
1.166016
30
0.500000
11
13.663090
21
1.000000
31
0.500000
0
LINE
8
0
62
0
10
13.663090
20
1.000000
30
0.500000
11
13.829100
21
1.000000
31
0.500000
0
LINE
8
0
62
0
10
13.829100
20
1.000000
30
0.500000
11
13.829100
21
0.166992
31
0.500000
0
LINE
8
0
62
0
10
13.829100
20
0.166992
30
0.500000
11
13.663090
21
0.166992
31
0.500000
0
LINE
8
0
62
0
10
13.663090
20
0.166992
30
0.500000
11
13.663090
21
0.000000
31
0.500000
0
LINE
8
0
62
0
10
13.663090
20
0.000000
30
0.500000
11
12.996090
21
0.000000
31
0.500000
0
LINE
8
0
62
0
10
12.996090
20
0.000000
30
0.500000
11
12.996090
21
0.166992
31
0.500000
0
LINE
8
0
62
0
10
12.996090
20
0.166992
30
0.500000
11
12.830080
21
0.166992
31
0.500000
0
LINE
8
0
62
0
10
12.830080
20
0.166992
30
0.500000
11
12.830080
21
1.000000
31
0.500000
0
LINE
8
0
62
0
10
13.163090
20
1.000000
30
0.500000
11
13.496090
21
1.000000
31
0.500000
0
LINE
8
0
62
0
10
13.496090
20
1.000000
30
0.500000
11
13.496090
21
0.833008
31
0.500000
0
LINE
8
0
62
0
10
13.496090
20
0.833008
30
0.500000
11
13.329100
21
0.833008
31
0.500000
0
LINE
8
0
62
0
10
13.329100
20
0.833008
30
0.500000
11
13.329100
21
0.666016
31
0.500000
0
LINE
8
0
62
0
10
13.329100
20
0.666016
30
0.500000
11
13.329100
21
0.500000
31
0.500000
0
LINE
8
0
62
0
10
13.329100
20
0.500000
30
0.500000
11
13.163090
21
0.500000
31
0.500000
0
LINE
8
0
62
0
10
13.163090
20
0.500000
30
0.500000
11
13.163090
21
0.166992
31
0.500000
0
LINE
8
0
62
0
10
13.163090
20
0.166992
30
0.500000
11
13.496090
21
0.166992
31
0.500000
0
LINE
8
0
62
0
10
13.496090
20
0.166992
30
0.500000
11
13.496090
21
0.666016
31
0.500000
0
LINE
8
0
62
0
10
13.496090
20
0.666016
30
0.500000
11
13.329100
21
0.666016
31
0.500000
0
LINE
8
0
62
0
10
13.329100
20
0.666016
30
0.500000
11
13.163090
21
0.666016
31
0.500000
0
LINE
8
0
62
0
10
13.163090
20
0.666016
30
0.500000
11
13.163090
21
1.000000
31
0.500000
0
LINE
8
0
62
0
10
14.163090
20
0.833008
30
0.500000
11
14.163090
21
1.000000
31
0.500000
0
LINE
8
0
62
0
10
14.163090
20
1.000000
30
0.500000
11
14.329100
21
1.000000
31
0.500000
0
LINE
8
0
62
0
10
14.329100
20
1.000000
30
0.500000
11
14.329100
21
1.166016
31
0.500000
0
LINE
8
0
62
0
10
14.329100
20
1.166016
30
0.500000
11
14.996090
21
1.166016
31
0.500000
0
LINE
8
0
62
0
10
14.996090
20
1.166016
30
0.500000
11
14.996090
21
1.000000
31
0.500000
0
LINE
8
0
62
0
10
14.996090
20
1.000000
30
0.500000
11
15.162110
21
1.000000
31
0.500000
0
LINE
8
0
62
0
10
15.162110
20
1.000000
30
0.500000
11
15.162110
21
0.666016
31
0.500000
0
LINE
8
0
62
0
10
15.162110
20
0.666016
30
0.500000
11
14.996090
21
0.666016
31
0.500000
0
LINE
8
0
62
0
10
14.996090
20
0.666016
30
0.500000
11
14.996090
21
0.500000
31
0.500000
0
LINE
8
0
62
0
10
14.996090
20
0.500000
30
0.500000
11
14.662110
21
0.500000
31
0.500000
0
LINE
8
0
62
0
10
14.662110
20
0.500000
30
0.500000
11
14.662110
21
0.333008
31
0.500000
0
LINE
8
0
62
0
10
14.662110
20
0.333008
30
0.500000
11
14.496090
21
0.333984
31
0.500000
0
LINE
8
0
62
0
10
14.496090
20
0.333984
30
0.500000
11
14.496090
21
0.166992
31
0.500000
0
LINE
8
0
62
0
10
14.496090
20
0.166992
30
0.500000
11
15.162110
21
0.166992
31
0.500000
0
LINE
8
0
62
0
10
15.162110
20
0.166992
30
0.500000
11
15.162110
21
0.000000
31
0.500000
0
LINE
8
0
62
0
10
15.162110
20
0.000000
30
0.500000
11
14.163090
21
0.000000
31
0.500000
0
LINE
8
0
62
0
10
14.163090
20
0.000000
30
0.500000
11
14.163090
21
0.333008
31
0.500000
0
LINE
8
0
62
0
10
14.163090
20
0.333008
30
0.500000
11
14.329100
21
0.333008
31
0.500000
0
LINE
8
0
62
0
10
14.329100
20
0.333008
30
0.500000
11
14.329100
21
0.500000
31
0.500000
0
LINE
8
0
62
0
10
14.329100
20
0.500000
30
0.500000
11
14.662110
21
0.500000
31
0.500000
0
LINE
8
0
62
0
10
14.662110
20
0.500000
30
0.500000
11
14.662110
21
0.666016
31
0.500000
0
LINE
8
0
62
0
10
14.662110
20
0.666016
30
0.500000
11
14.829100
21
0.666016
31
0.500000
0
LINE
8
0
62
0
10
14.829100
20
0.666016
30
0.500000
11
14.829100
21
1.000000
31
0.500000
0
LINE
8
0
62
0
10
14.829100
20
1.000000
30
0.500000
11
14.496090
21
1.000000
31
0.500000
0
LINE
8
0
62
0
10
14.496090
20
1.000000
30
0.500000
11
14.496090
21
0.833008
31
0.500000
0
LINE
8
0
62
0
10
14.496090
20
0.833008
30
0.500000
11
14.163090
21
0.833008
31
0.500000
0
LINE
8
0
62
0
10
15.496090
20
0.833008
30
0.500000
11
15.496090
21
1.000000
31
0.500000
0
LINE
8
0
62
0
10
15.496090
20
1.000000
30
0.500000
11
15.662110
21
1.000000
31
0.500000
0
LINE
8
0
62
0
10
15.662110
20
1.000000
30
0.500000
11
15.662110
21
1.166016
31
0.500000
0
LINE
8
0
62
0
10
15.662110
20
1.166016
30
0.500000
11
16.329100
21
1.166016
31
0.500000
0
LINE
8
0
62
0
10
16.329100
20
1.166016
30
0.500000
11
16.329100
21
1.000000
31
0.500000
0
LINE
8
0
62
0
10
16.329100
20
1.000000
30
0.500000
11
16.495120
21
1.000000
31
0.500000
0
LINE
8
0
62
0
10
16.495120
20
1.000000
30
0.500000
11
16.495120
21
0.666016
31
0.500000
0
LINE
8
0
62
0
10
16.495120
20
0.666016
30
0.500000
11
16.329100
21
0.666016
31
0.500000
0
LINE
8
0
62
0
10
16.329100
20
0.666016
30
0.500000
11
16.329100
21
0.500000
31
0.500000
0
LINE
8
0
62
0
10
16.329100
20
0.500000
30
0.500000
11
15.995120
21
0.500000
31
0.500000
0
LINE
8
0
62
0
10
15.995120
20
0.500000
30
0.500000
11
15.995120
21
0.333008
31
0.500000
0
LINE
8
0
62
0
10
15.995120
20
0.333008
30
0.500000
11
15.829100
21
0.333984
31
0.500000
0
LINE
8
0
62
0
10
15.829100
20
0.333984
30
0.500000
11
15.829100
21
0.166992
31
0.500000
0
LINE
8
0
62
0
10
15.829100
20
0.166992
30
0.500000
11
16.495120
21
0.166992
31
0.500000
0
LINE
8
0
62
0
10
16.495120
20
0.166992
30
0.500000
11
16.495120
21
0.000000
31
0.500000
0
LINE
8
0
62
0
10
16.495120
20
0.000000
30
0.500000
11
15.496090
21
0.000000
31
0.500000
0
LINE
8
0
62
0
10
15.496090
20
0.000000
30
0.500000
11
15.496090
21
0.333008
31
0.500000
0
LINE
8
0
62
0
10
15.496090
20
0.333008
30
0.500000
11
15.662110
21
0.333008
31
0.500000
0
LINE
8
0
62
0
10
15.662110
20
0.333008
30
0.500000
11
15.662110
21
0.500000
31
0.500000
0
LINE
8
0
62
0
10
15.662110
20
0.500000
30
0.500000
11
15.995120
21
0.500000
31
0.500000
0
LINE
8
0
62
0
10
15.995120
20
0.500000
30
0.500000
11
15.995120
21
0.666016
31
0.500000
0
LINE
8
0
62
0
10
15.995120
20
0.666016
30
0.500000
11
16.162110
21
0.666016
31
0.500000
0
LINE
8
0
62
0
10
16.162110
20
0.666016
30
0.500000
11
16.162110
21
1.000000
31
0.500000
0
LINE
8
0
62
0
10
16.162110
20
1.000000
30
0.500000
11
15.829100
21
1.000000
31
0.500000
0
LINE
8
0
62
0
10
15.829100
20
1.000000
30
0.500000
11
15.829100
21
0.833008
31
0.500000
0
LINE
8
0
62
0
10
15.829100
20
0.833008
30
0.500000
11
15.496090
21
0.833008
31
0.500000
0
ENDSEC
0
EOF
