0
SECTION
2
HEADER
9
$EXTMIN
10
0.1669921875
20
0
30
0.5
9
$EXTMAX
10
7.1640625
20
1.166015625
30
0.5
0
ENDSEC
0
SECTION
2
TABLES
0
TABLE
2
VPORT
0
VPORT
2
*ACTIVE
41
  1.000000
0
ENDTAB
0
TABLE
2
LAYER
0
LAYER
2
0
62
0
0
ENDTAB
0
ENDSEC
0
SECTION
2
BLOCKS
0
ENDSEC
0
SECTION
2
ENTITIES
0
LINE
8
0
62
0
10
0.166992
20
0.166992
30
0.500000
11
0.166992
21
1.000000
31
0.500000
0
LINE
8
0
62
0
10
0.166992
20
1.000000
30
0.500000
11
0.333008
21
1.000000
31
0.500000
0
LINE
8
0
62
0
10
0.333008
20
1.000000
30
0.500000
11
0.333008
21
1.166016
31
0.500000
0
LINE
8
0
62
0
10
0.333008
20
1.166016
30
0.500000
11
1.000000
21
1.166016
31
0.500000
0
LINE
8
0
62
0
10
1.000000
20
1.166016
30
0.500000
11
1.000000
21
1.000000
31
0.500000
0
LINE
8
0
62
0
10
1.000000
20
1.000000
30
0.500000
11
1.166016
21
1.000000
31
0.500000
0
LINE
8
0
62
0
10
1.166016
20
1.000000
30
0.500000
11
1.166016
21
0.833008
31
0.500000
0
LINE
8
0
62
0
10
1.166016
20
0.833008
30
0.500000
11
0.833008
21
0.833008
31
0.500000
0
LINE
8
0
62
0
10
0.833008
20
0.833008
30
0.500000
11
0.833008
21
1.000000
31
0.500000
0
LINE
8
0
62
0
10
0.833008
20
1.000000
30
0.500000
11
0.500000
21
1.000000
31
0.500000
0
LINE
8
0
62
0
10
0.500000
20
1.000000
30
0.500000
11
0.500000
21
0.166992
31
0.500000
0
LINE
8
0
62
0
10
0.500000
20
0.166992
30
0.500000
11
0.833008
21
0.166992
31
0.500000
0
LINE
8
0
62
0
10
0.833008
20
0.166992
30
0.500000
11
0.833008
21
0.333008
31
0.500000
0
LINE
8
0
62
0
10
0.833008
20
0.333008
30
0.500000
11
1.166016
21
0.333008
31
0.500000
0
LINE
8
0
62
0
10
1.166016
20
0.333008
30
0.500000
11
1.166016
21
0.166992
31
0.500000
0
LINE
8
0
62
0
10
1.166016
20
0.166992
30
0.500000
11
1.000000
21
0.166992
31
0.500000
0
LINE
8
0
62
0
10
1.000000
20
0.166992
30
0.500000
11
1.000000
21
0.000000
31
0.500000
0
LINE
8
0
62
0
10
1.000000
20
0.000000
30
0.500000
11
0.333008
21
0.000000
31
0.500000
0
LINE
8
0
62
0
10
0.333008
20
0.000000
30
0.500000
11
0.333008
21
0.166992
31
0.500000
0
LINE
8
0
62
0
10
0.333008
20
0.166992
30
0.500000
11
0.166992
21
0.166992
31
0.500000
0
LINE
8
0
62
0
10
1.500000
20
0.166992
30
0.500000
11
1.500000
21
1.000000
31
0.500000
0
LINE
8
0
62
0
10
1.500000
20
1.000000
30
0.500000
11
1.666016
21
1.000000
31
0.500000
0
LINE
8
0
62
0
10
1.666016
20
1.000000
30
0.500000
11
1.666016
21
1.166016
31
0.500000
0
LINE
8
0
62
0
10
1.666016
20
1.166016
30
0.500000
11
2.333008
21
1.166016
31
0.500000
0
LINE
8
0
62
0
10
2.333008
20
1.166016
30
0.500000
11
2.333008
21
1.000000
31
0.500000
0
LINE
8
0
62
0
10
2.333008
20
1.000000
30
0.500000
11
2.499023
21
1.000000
31
0.500000
0
LINE
8
0
62
0
10
2.499023
20
1.000000
30
0.500000
11
2.499023
21
0.166992
31
0.500000
0
LINE
8
0
62
0
10
2.499023
20
0.166992
30
0.500000
11
2.333008
21
0.166992
31
0.500000
0
LINE
8
0
62
0
10
2.333008
20
0.166992
30
0.500000
11
2.333008
21
0.000000
31
0.500000
0
LINE
8
0
62
0
10
2.333008
20
0.000000
30
0.500000
11
1.666016
21
0.000000
31
0.500000
0
LINE
8
0
62
0
10
1.666016
20
0.000000
30
0.500000
11
1.666016
21
0.166992
31
0.500000
0
LINE
8
0
62
0
10
1.666016
20
0.166992
30
0.500000
11
1.500000
21
0.166992
31
0.500000
0
LINE
8
0
62
0
10
1.833008
20
0.166992
30
0.500000
11
1.833008
21
1.000000
31
0.500000
0
LINE
8
0
62
0
10
1.833008
20
1.000000
30
0.500000
11
2.166016
21
1.000000
31
0.500000
0
LINE
8
0
62
0
10
2.166016
20
1.000000
30
0.500000
11
2.166016
21
0.166992
31
0.500000
0
LINE
8
0
62
0
10
2.166016
20
0.166992
30
0.500000
11
1.833008
21
0.166992
31
0.500000
0
LINE
8
0
62
0
10
2.833008
20
0.166992
30
0.500000
11
2.833008
21
1.000000
31
0.500000
0
LINE
8
0
62
0
10
2.833008
20
1.000000
30
0.500000
11
2.999023
21
1.000000
31
0.500000
0
LINE
8
0
62
0
10
2.999023
20
1.000000
30
0.500000
11
2.999023
21
1.166016
31
0.500000
0
LINE
8
0
62
0
10
2.999023
20
1.166016
30
0.500000
11
3.666016
21
1.166016
31
0.500000
0
LINE
8
0
62
0
10
3.666016
20
1.166016
30
0.500000
11
3.666016
21
1.000000
31
0.500000
0
LINE
8
0
62
0
10
3.666016
20
1.000000
30
0.500000
11
3.832031
21
1.000000
31
0.500000
0
LINE
8
0
62
0
10
3.832031
20
1.000000
30
0.500000
11
3.832031
21
0.833008
31
0.500000
0
LINE
8
0
62
0
10
3.832031
20
0.833008
30
0.500000
11
3.499023
21
0.833008
31
0.500000
0
LINE
8
0
62
0
10
3.499023
20
0.833008
30
0.500000
11
3.499023
21
1.000000
31
0.500000
0
LINE
8
0
62
0
10
3.499023
20
1.000000
30
0.500000
11
3.166016
21
1.000000
31
0.500000
0
LINE
8
0
62
0
10
3.166016
20
1.000000
30
0.500000
11
3.166016
21
0.166992
31
0.500000
0
LINE
8
0
62
0
10
3.166016
20
0.166992
30
0.500000
11
3.499023
21
0.166992
31
0.500000
0
LINE
8
0
62
0
10
3.499023
20
0.166992
30
0.500000
11
3.499023
21
0.333008
31
0.500000
0
LINE
8
0
62
0
10
3.499023
20
0.333008
30
0.500000
11
3.832031
21
0.333008
31
0.500000
0
LINE
8
0
62
0
10
3.832031
20
0.333008
30
0.500000
11
3.832031
21
0.166992
31
0.500000
0
LINE
8
0
62
0
10
3.832031
20
0.166992
30
0.500000
11
3.666016
21
0.166992
31
0.500000
0
LINE
8
0
62
0
10
3.666016
20
0.166992
30
0.500000
11
3.666016
21
0.000000
31
0.500000
0
LINE
8
0
62
0
10
3.666016
20
0.000000
30
0.500000
11
2.999023
21
0.000000
31
0.500000
0
LINE
8
0
62
0
10
2.999023
20
0.000000
30
0.500000
11
2.999023
21
0.166992
31
0.500000
0
LINE
8
0
62
0
10
2.999023
20
0.166992
30
0.500000
11
2.833008
21
0.166992
31
0.500000
0
LINE
8
0
62
0
10
4.166016
20
0.166992
30
0.500000
11
4.166016
21
1.000000
31
0.500000
0
LINE
8
0
62
0
10
4.166016
20
1.000000
30
0.500000
11
4.332031
21
1.000000
31
0.500000
0
LINE
8
0
62
0
10
4.332031
20
1.000000
30
0.500000
11
4.332031
21
1.166016
31
0.500000
0
LINE
8
0
62
0
10
4.332031
20
1.166016
30
0.500000
11
4.999023
21
1.166016
31
0.500000
0
LINE
8
0
62
0
10
4.999023
20
1.166016
30
0.500000
11
4.999023
21
1.000000
31
0.500000
0
LINE
8
0
62
0
10
4.999023
20
1.000000
30
0.500000
11
5.165039
21
1.000000
31
0.500000
0
LINE
8
0
62
0
10
5.165039
20
1.000000
30
0.500000
11
5.165039
21
0.166992
31
0.500000
0
LINE
8
0
62
0
10
5.165039
20
0.166992
30
0.500000
11
4.999023
21
0.166992
31
0.500000
0
LINE
8
0
62
0
10
4.999023
20
0.166992
30
0.500000
11
4.999023
21
0.000000
31
0.500000
0
LINE
8
0
62
0
10
4.999023
20
0.000000
30
0.500000
11
4.332031
21
0.000000
31
0.500000
0
LINE
8
0
62
0
10
4.332031
20
0.000000
30
0.500000
11
4.332031
21
0.166992
31
0.500000
0
LINE
8
0
62
0
10
4.332031
20
0.166992
30
0.500000
11
4.166016
21
0.166992
31
0.500000
0
LINE
8
0
62
0
10
4.499023
20
0.166992
30
0.500000
11
4.499023
21
1.000000
31
0.500000
0
LINE
8
0
62
0
10
4.499023
20
1.000000
30
0.500000
11
4.832031
21
1.000000
31
0.500000
0
LINE
8
0
62
0
10
4.832031
20
1.000000
30
0.500000
11
4.832031
21
0.166992
31
0.500000
0
LINE
8
0
62
0
10
4.832031
20
0.166992
30
0.500000
11
4.499023
21
0.166992
31
0.500000
0
LINE
8
0
62
0
10
6.165039
20
0.000000
30
0.500000
11
6.165039
21
0.166992
31
0.500000
0
LINE
8
0
62
0
10
6.165039
20
0.166992
30
0.500000
11
6.498047
21
0.166992
31
0.500000
0
LINE
8
0
62
0
10
6.498047
20
0.166992
30
0.500000
11
6.498047
21
0.666016
31
0.500000
0
LINE
8
0
62
0
10
6.498047
20
0.666016
30
0.500000
11
6.331055
21
0.666016
31
0.500000
0
LINE
8
0
62
0
10
6.331055
20
0.666016
30
0.500000
11
6.331055
21
0.833008
31
0.500000
0
LINE
8
0
62
0
10
6.331055
20
0.833008
30
0.500000
11
6.498047
21
0.833008
31
0.500000
0
LINE
8
0
62
0
10
6.498047
20
0.833008
30
0.500000
11
6.498047
21
1.166016
31
0.500000
0
LINE
8
0
62
0
10
6.498047
20
1.166016
30
0.500000
11
6.831055
21
1.166016
31
0.500000
0
LINE
8
0
62
0
10
6.831055
20
1.166016
30
0.500000
11
6.831055
21
0.166992
31
0.500000
0
LINE
8
0
62
0
10
6.831055
20
0.166992
30
0.500000
11
7.164063
21
0.166992
31
0.500000
0
LINE
8
0
62
0
10
7.164063
20
0.166992
30
0.500000
11
7.164063
21
0.000000
31
0.500000
0
LINE
8
0
62
0
10
7.164063
20
0.000000
30
0.500000
11
6.165039
21
0.000000
31
0.500000
0
ENDSEC
0
EOF
