G04 #@! TF.GenerationSoftware,KiCad,Pcbnew,(5.1.9)-1*
G04 #@! TF.CreationDate,2022-09-29T01:04:44-04:00*
G04 #@! TF.ProjectId,Cocoloca,436f636f-6c6f-4636-912e-6b696361645f,rev?*
G04 #@! TF.SameCoordinates,Original*
G04 #@! TF.FileFunction,Soldermask,Bot*
G04 #@! TF.FilePolarity,Negative*
%FSLAX46Y46*%
G04 Gerber Fmt 4.6, Leading zero omitted, Abs format (unit mm)*
G04 Created by KiCad (PCBNEW (5.1.9)-1) date 2022-09-29 01:04:44*
%MOMM*%
%LPD*%
G01*
G04 APERTURE LIST*
%ADD10O,2.400000X1.600000*%
%ADD11R,2.400000X1.600000*%
%ADD12O,1.600000X1.600000*%
%ADD13C,1.600000*%
%ADD14O,1.700000X1.700000*%
%ADD15R,1.700000X1.700000*%
G04 APERTURE END LIST*
D10*
X151130000Y-96520000D03*
X143510000Y-114300000D03*
X151130000Y-99060000D03*
X143510000Y-111760000D03*
X151130000Y-101600000D03*
X143510000Y-109220000D03*
X151130000Y-104140000D03*
X143510000Y-106680000D03*
X151130000Y-106680000D03*
X143510000Y-104140000D03*
X151130000Y-109220000D03*
X143510000Y-101600000D03*
X151130000Y-111760000D03*
X143510000Y-99060000D03*
X151130000Y-114300000D03*
D11*
X143510000Y-96520000D03*
D10*
X134620000Y-80010000D03*
X119380000Y-128270000D03*
X134620000Y-82550000D03*
X119380000Y-125730000D03*
X134620000Y-85090000D03*
X119380000Y-123190000D03*
X134620000Y-87630000D03*
X119380000Y-120650000D03*
X134620000Y-90170000D03*
X119380000Y-118110000D03*
X134620000Y-92710000D03*
X119380000Y-115570000D03*
X134620000Y-95250000D03*
X119380000Y-113030000D03*
X134620000Y-97790000D03*
X119380000Y-110490000D03*
X134620000Y-100330000D03*
X119380000Y-107950000D03*
X134620000Y-102870000D03*
X119380000Y-105410000D03*
X134620000Y-105410000D03*
X119380000Y-102870000D03*
X134620000Y-107950000D03*
X119380000Y-100330000D03*
X134620000Y-110490000D03*
X119380000Y-97790000D03*
X134620000Y-113030000D03*
X119380000Y-95250000D03*
X134620000Y-115570000D03*
X119380000Y-92710000D03*
X134620000Y-118110000D03*
X119380000Y-90170000D03*
X134620000Y-120650000D03*
X119380000Y-87630000D03*
X134620000Y-123190000D03*
X119380000Y-85090000D03*
X134620000Y-125730000D03*
X119380000Y-82550000D03*
X134620000Y-128270000D03*
D11*
X119380000Y-80010000D03*
D10*
X138430000Y-81280000D03*
X123190000Y-129540000D03*
X138430000Y-83820000D03*
X123190000Y-127000000D03*
X138430000Y-86360000D03*
X123190000Y-124460000D03*
X138430000Y-88900000D03*
X123190000Y-121920000D03*
X138430000Y-91440000D03*
X123190000Y-119380000D03*
X138430000Y-93980000D03*
X123190000Y-116840000D03*
X138430000Y-96520000D03*
X123190000Y-114300000D03*
X138430000Y-99060000D03*
X123190000Y-111760000D03*
X138430000Y-101600000D03*
X123190000Y-109220000D03*
X138430000Y-104140000D03*
X123190000Y-106680000D03*
X138430000Y-106680000D03*
X123190000Y-104140000D03*
X138430000Y-109220000D03*
X123190000Y-101600000D03*
X138430000Y-111760000D03*
X123190000Y-99060000D03*
X138430000Y-114300000D03*
X123190000Y-96520000D03*
X138430000Y-116840000D03*
X123190000Y-93980000D03*
X138430000Y-119380000D03*
X123190000Y-91440000D03*
X138430000Y-121920000D03*
X123190000Y-88900000D03*
X138430000Y-124460000D03*
X123190000Y-86360000D03*
X138430000Y-127000000D03*
X123190000Y-83820000D03*
X138430000Y-129540000D03*
D11*
X123190000Y-81280000D03*
D12*
X152400000Y-120650000D03*
D13*
X142240000Y-120650000D03*
D14*
X143510000Y-128270000D03*
D15*
X143510000Y-125730000D03*
D14*
X143510000Y-88900000D03*
X143510000Y-86360000D03*
D15*
X143510000Y-83820000D03*
D14*
X147320000Y-88900000D03*
X147320000Y-86360000D03*
D15*
X147320000Y-83820000D03*
D14*
X151130000Y-88900000D03*
X151130000Y-86360000D03*
D15*
X151130000Y-83820000D03*
M02*
