M48
INCH,TZ
T1C0.0315
T2C0.0394
%
G90
G05
T1
X47000Y-31500
X47000Y-32500
X47000Y-33500
X47000Y-34500
X47000Y-35500
X47000Y-36500
X47000Y-37500
X47000Y-38500
X47000Y-39500
X47000Y-40500
X47000Y-41500
X47000Y-42500
X47000Y-43500
X47000Y-44500
X47000Y-45500
X47000Y-46500
X47000Y-47500
X47000Y-48500
X47000Y-49500
X47000Y-50500
X48500Y-32000
X48500Y-33000
X48500Y-34000
X48500Y-35000
X48500Y-36000
X48500Y-37000
X48500Y-38000
X48500Y-39000
X48500Y-40000
X48500Y-41000
X48500Y-42000
X48500Y-43000
X48500Y-44000
X48500Y-45000
X48500Y-46000
X48500Y-47000
X48500Y-48000
X48500Y-49000
X48500Y-50000
X48500Y-51000
X53000Y-31500
X53000Y-32500
X53000Y-33500
X53000Y-34500
X53000Y-35500
X53000Y-36500
X53000Y-37500
X53000Y-38500
X53000Y-39500
X53000Y-40500
X53000Y-41500
X53000Y-42500
X53000Y-43500
X53000Y-44500
X53000Y-45500
X53000Y-46500
X53000Y-47500
X53000Y-48500
X53000Y-49500
X53000Y-50500
X54500Y-32000
X54500Y-33000
X54500Y-34000
X54500Y-35000
X54500Y-36000
X54500Y-37000
X54500Y-38000
X54500Y-39000
X54500Y-40000
X54500Y-41000
X54500Y-42000
X54500Y-43000
X54500Y-44000
X54500Y-45000
X54500Y-46000
X54500Y-47000
X54500Y-48000
X54500Y-49000
X54500Y-50000
X54500Y-51000
X56000Y-47500
X56500Y-38000
X56500Y-39000
X56500Y-40000
X56500Y-41000
X56500Y-42000
X56500Y-43000
X56500Y-44000
X56500Y-45000
X59500Y-38000
X59500Y-39000
X59500Y-40000
X59500Y-41000
X59500Y-42000
X59500Y-43000
X59500Y-44000
X59500Y-45000
X60000Y-47500
T2
X56500Y-33000
X56500Y-34000
X56500Y-35000
X56500Y-49500
X56500Y-50500
X58000Y-33000
X58000Y-34000
X58000Y-35000
X59500Y-33000
X59500Y-34000
X59500Y-35000
T0
M30
