G04 #@! TF.GenerationSoftware,KiCad,Pcbnew,(5.1.9)-1*
G04 #@! TF.CreationDate,2022-09-29T01:04:44-04:00*
G04 #@! TF.ProjectId,Cocoloca,436f636f-6c6f-4636-912e-6b696361645f,rev?*
G04 #@! TF.SameCoordinates,Original*
G04 #@! TF.FileFunction,Legend,Top*
G04 #@! TF.FilePolarity,Positive*
%FSLAX46Y46*%
G04 Gerber Fmt 4.6, Leading zero omitted, Abs format (unit mm)*
G04 Created by KiCad (PCBNEW (5.1.9)-1) date 2022-09-29 01:04:44*
%MOMM*%
%LPD*%
G01*
G04 APERTURE LIST*
%ADD10C,0.014400*%
%ADD11C,0.010000*%
%ADD12C,0.120000*%
%ADD13C,0.150000*%
G04 APERTURE END LIST*
D10*
X146784390Y-92638829D02*
X146585171Y-92638829D01*
X145784781Y-91839610D02*
X146585171Y-91839610D01*
X148784781Y-92638829D02*
X148784781Y-92040000D01*
X147185171Y-91440000D02*
X147584781Y-91440000D01*
X145184781Y-92638829D02*
X144985563Y-92638829D01*
X145184781Y-91639219D02*
X145184781Y-91839610D01*
X143185563Y-92040000D02*
X143185563Y-92638829D01*
X146585171Y-92040000D02*
X146784390Y-92040000D01*
X146585171Y-92839219D02*
X145784781Y-92839219D01*
X144785171Y-92439610D02*
X145184781Y-92439610D01*
X143985953Y-92638829D02*
X143985953Y-91639219D01*
X148384000Y-92638829D02*
X148384000Y-92839219D01*
X147584781Y-91440000D02*
X147584781Y-92638829D01*
X145585563Y-92040000D02*
X145784781Y-92040000D01*
X145184781Y-91839610D02*
X144785171Y-91839610D01*
X145784781Y-92839219D02*
X145784781Y-92638829D01*
X144185171Y-92839219D02*
X144185171Y-92638829D01*
X146585171Y-91839610D02*
X146585171Y-92040000D01*
X144785171Y-91639219D02*
X144385563Y-91639219D01*
X143985953Y-91639219D02*
X144185171Y-91639219D01*
X147584781Y-92638829D02*
X148384000Y-92638829D01*
X146585171Y-92638829D02*
X146585171Y-92839219D01*
X144985563Y-91639219D02*
X145184781Y-91639219D01*
X144985563Y-92839219D02*
X144185171Y-92839219D01*
X145985171Y-92638829D02*
X145985171Y-92040000D01*
X145184781Y-92439610D02*
X145184781Y-92638829D01*
X148784781Y-92040000D02*
X148984000Y-92040000D01*
X147185171Y-92839219D02*
X147185171Y-91440000D01*
X144985563Y-92638829D02*
X144985563Y-92839219D01*
X144385563Y-91639219D02*
X144385563Y-92638829D01*
X146384781Y-92638829D02*
X145985171Y-92638829D01*
X145985171Y-92040000D02*
X146384781Y-92040000D01*
X144985563Y-91440000D02*
X144985563Y-91639219D01*
X145784781Y-92638829D02*
X145585563Y-92638829D01*
X144185171Y-92638829D02*
X143985953Y-92638829D01*
X144385563Y-92638829D02*
X144785171Y-92638829D01*
X144785171Y-91839610D02*
X144785171Y-91639219D01*
X146784390Y-92040000D02*
X146784390Y-92638829D01*
X143185563Y-92638829D02*
X142785953Y-92638829D01*
X145585563Y-92638829D02*
X145585563Y-92040000D01*
X148384000Y-92839219D02*
X147185171Y-92839219D01*
X144785171Y-92638829D02*
X144785171Y-92439610D01*
X145784781Y-92040000D02*
X145784781Y-91839610D01*
X144185171Y-91440000D02*
X144985563Y-91440000D01*
X146384781Y-92040000D02*
X146384781Y-92638829D01*
X144185171Y-91639219D02*
X144185171Y-91440000D01*
X140786734Y-92638829D02*
X140786734Y-91639219D01*
X140786734Y-91639219D02*
X140985953Y-91639219D01*
X141585953Y-92638829D02*
X141585953Y-92439610D01*
X142585563Y-91839610D02*
X143385953Y-91839610D01*
X141786344Y-91639219D02*
X141985563Y-91639219D01*
X140985953Y-91639219D02*
X140985953Y-91440000D01*
X142785953Y-92040000D02*
X143185563Y-92040000D01*
X142785953Y-92638829D02*
X142785953Y-92040000D01*
X142585563Y-92638829D02*
X142386344Y-92638829D01*
X140985953Y-91440000D02*
X141786344Y-91440000D01*
X142585563Y-92839219D02*
X142585563Y-92638829D01*
X141585953Y-92439610D02*
X141985563Y-92439610D01*
X141585953Y-91839610D02*
X141585953Y-91639219D01*
X143385953Y-92839219D02*
X142585563Y-92839219D01*
X143385953Y-92638829D02*
X143385953Y-92839219D01*
X141985563Y-92439610D02*
X141985563Y-92638829D01*
X143585171Y-92638829D02*
X143385953Y-92638829D01*
X143585171Y-92040000D02*
X143585171Y-92638829D01*
X142386344Y-92040000D02*
X142585563Y-92040000D01*
X143385953Y-92040000D02*
X143585171Y-92040000D01*
X143385953Y-91839610D02*
X143385953Y-92040000D01*
X142585563Y-92040000D02*
X142585563Y-91839610D01*
X142386344Y-92638829D02*
X142386344Y-92040000D01*
X140985953Y-92638829D02*
X140786734Y-92638829D01*
X140985953Y-92839219D02*
X140985953Y-92638829D01*
X141786344Y-92839219D02*
X140985953Y-92839219D01*
X141786344Y-91440000D02*
X141786344Y-91639219D01*
X141985563Y-92638829D02*
X141786344Y-92638829D01*
X141585953Y-91639219D02*
X141186344Y-91639219D01*
X141985563Y-91639219D02*
X141985563Y-91839610D01*
X141186344Y-92638829D02*
X141585953Y-92638829D01*
X141786344Y-92638829D02*
X141786344Y-92839219D01*
X141186344Y-91639219D02*
X141186344Y-92638829D01*
X141985563Y-91839610D02*
X141585953Y-91839610D01*
X152383609Y-92439610D02*
X152783215Y-92439610D01*
X152183219Y-92839219D02*
X152183219Y-92638829D01*
X152783215Y-92439610D02*
X152783215Y-92638829D01*
X152183219Y-92638829D02*
X151984000Y-92638829D01*
X152783215Y-92638829D02*
X152383609Y-92638829D01*
X152383609Y-92638829D02*
X152383609Y-92439610D01*
X150583609Y-91440000D02*
X151384000Y-91440000D01*
X149584000Y-92040000D02*
X149584000Y-92638829D01*
X149983610Y-92638829D02*
X149784390Y-92638829D01*
X149184390Y-92638829D02*
X149184390Y-92040000D01*
X151583219Y-91839610D02*
X151183609Y-91839610D01*
X153182828Y-92839219D02*
X152183219Y-92839219D01*
X153182828Y-92040000D02*
X153182828Y-92839219D01*
X149983610Y-92040000D02*
X149983610Y-92638829D01*
X151183609Y-91639219D02*
X150784000Y-91639219D01*
X150583609Y-92638829D02*
X150384390Y-92638829D01*
X152183219Y-92239219D02*
X152783215Y-92239219D01*
X151984000Y-92439610D02*
X152183219Y-92439610D01*
X152983604Y-92040000D02*
X153182828Y-92040000D01*
X149784390Y-92638829D02*
X149784390Y-92839219D01*
X152983604Y-91839610D02*
X152983604Y-92040000D01*
X152183219Y-91839610D02*
X152983604Y-91839610D01*
X151583219Y-92439610D02*
X151583219Y-92638829D01*
X150784000Y-91639219D02*
X150784000Y-92638829D01*
X151384000Y-92839219D02*
X150583609Y-92839219D01*
X152183219Y-92040000D02*
X152183219Y-91839610D01*
X152783215Y-92040000D02*
X152183219Y-92040000D01*
X148984000Y-92638829D02*
X148784781Y-92638829D01*
X152783215Y-92239219D02*
X152783215Y-92040000D01*
X152183219Y-92439610D02*
X152183219Y-92239219D01*
X151984000Y-92638829D02*
X151984000Y-92439610D01*
X149784390Y-91839610D02*
X149784390Y-92040000D01*
X150583609Y-92839219D02*
X150583609Y-92638829D01*
X151183609Y-92439610D02*
X151583219Y-92439610D01*
X151384000Y-92638829D02*
X151384000Y-92839219D01*
X149584000Y-92638829D02*
X149184390Y-92638829D01*
X148984000Y-92839219D02*
X148984000Y-92638829D01*
X151183609Y-91839610D02*
X151183609Y-91639219D01*
X151384000Y-91639219D02*
X151583219Y-91639219D01*
X150583609Y-91639219D02*
X150583609Y-91440000D01*
X149184390Y-92040000D02*
X149584000Y-92040000D01*
X150384390Y-91639219D02*
X150583609Y-91639219D01*
X148984000Y-92040000D02*
X148984000Y-91839610D01*
X149784390Y-92040000D02*
X149983610Y-92040000D01*
X151183609Y-92638829D02*
X151183609Y-92439610D01*
X151583219Y-92638829D02*
X151384000Y-92638829D01*
X150384390Y-92638829D02*
X150384390Y-91639219D01*
X149784390Y-92839219D02*
X148984000Y-92839219D01*
X148984000Y-91839610D02*
X149784390Y-91839610D01*
X150784000Y-92638829D02*
X151183609Y-92638829D01*
X151583219Y-91639219D02*
X151583219Y-91839610D01*
X151384000Y-91440000D02*
X151384000Y-91639219D01*
D11*
X140200000Y-79248000D02*
X140200000Y-79414992D01*
X140200000Y-78581984D02*
X140200000Y-78748976D01*
X139533008Y-78748976D02*
X139533008Y-78581984D01*
X139533008Y-79248000D02*
X139366992Y-79248000D01*
X140200000Y-79414992D02*
X139533008Y-79414992D01*
X139533008Y-79414992D02*
X139533008Y-79248000D01*
X140366015Y-79248000D02*
X140200000Y-79248000D01*
X140200000Y-78748976D02*
X140366015Y-78748976D01*
X139366992Y-78748976D02*
X139533008Y-78748976D01*
X139533008Y-78581984D02*
X140200000Y-78581984D01*
X140366015Y-78748976D02*
X140366015Y-79248000D01*
X139366992Y-79248000D02*
X139366992Y-78748976D01*
X138366992Y-78581984D02*
X138200000Y-78581984D01*
X150697072Y-79248000D02*
X150697072Y-78414992D01*
X149697072Y-78581984D02*
X149364062Y-78581984D01*
X151530082Y-78414992D02*
X151696092Y-78414992D01*
X151363082Y-78414992D02*
X151363082Y-78581984D01*
X150863082Y-79248000D02*
X150697072Y-79248000D01*
X150863082Y-78248976D02*
X151530082Y-78248976D01*
X151530082Y-79248000D02*
X151530082Y-79414992D01*
X151196092Y-78914992D02*
X151030082Y-78914992D01*
X151196092Y-78581984D02*
X151196092Y-78748976D01*
X151363082Y-78581984D02*
X151196092Y-78581984D01*
X151530082Y-78248976D02*
X151530082Y-78414992D01*
X150030082Y-78748976D02*
X150030082Y-78414992D01*
X150697072Y-78414992D02*
X150863082Y-78414992D01*
X150863082Y-78414992D02*
X150863082Y-78248976D01*
X151196092Y-78748976D02*
X151196092Y-78914992D01*
X149697072Y-78414992D02*
X149697072Y-78581984D01*
X151696092Y-78414992D02*
X151696092Y-79248000D01*
X151030082Y-78414992D02*
X151363082Y-78414992D01*
X151530082Y-79414992D02*
X150863082Y-79414992D01*
X150863082Y-79414992D02*
X150863082Y-79248000D01*
X151696092Y-79248000D02*
X151530082Y-79248000D01*
X150030082Y-78414992D02*
X149697072Y-78414992D01*
X149863082Y-78748976D02*
X150030082Y-78748976D01*
X149530082Y-78914992D02*
X149863082Y-78914992D01*
X150363082Y-79414992D02*
X149364062Y-79414992D01*
X150197072Y-78748976D02*
X150197072Y-78914992D01*
X150363082Y-78414992D02*
X150363082Y-78748976D01*
X149863082Y-78914992D02*
X149863082Y-78748976D01*
X149863082Y-79081984D02*
X149697072Y-79081008D01*
X147698047Y-78581984D02*
X147531055Y-78581984D01*
X150197072Y-78414992D02*
X150363082Y-78414992D01*
X149364062Y-78414992D02*
X149530082Y-78414992D01*
X149697072Y-79081008D02*
X149697072Y-79248000D01*
X150197072Y-78248976D02*
X150197072Y-78414992D01*
X149530082Y-79081984D02*
X149530082Y-78914992D01*
X149364062Y-78581984D02*
X149364062Y-78414992D01*
X149364062Y-79081984D02*
X149530082Y-79081984D01*
X149364062Y-79414992D02*
X149364062Y-79081984D01*
X150363082Y-79248000D02*
X150363082Y-79414992D01*
X149530082Y-78248976D02*
X150197072Y-78248976D01*
X147698047Y-79248000D02*
X147698047Y-78581984D01*
X149863082Y-78914992D02*
X149863082Y-79081984D01*
X149530082Y-78414992D02*
X149530082Y-78248976D01*
X149697072Y-79248000D02*
X150363082Y-79248000D01*
X150197072Y-78914992D02*
X149863082Y-78914992D01*
X150363082Y-78748976D02*
X150197072Y-78748976D01*
X152196092Y-78248976D02*
X152863082Y-78248976D01*
X151363082Y-78748976D02*
X151196092Y-78748976D01*
X151196092Y-78748976D02*
X151030082Y-78748976D01*
X152030082Y-78581984D02*
X152030082Y-78414992D01*
X152529102Y-79081984D02*
X152363082Y-79081008D01*
X152529102Y-78914992D02*
X152529102Y-78748976D01*
X152196092Y-79081984D02*
X152196092Y-78914992D01*
X153029102Y-79248000D02*
X153029102Y-79414992D01*
X152030082Y-79081984D02*
X152196092Y-79081984D01*
X152863082Y-78914992D02*
X152529102Y-78914992D01*
X152696092Y-78748976D02*
X152696092Y-78414992D01*
X154196092Y-78248976D02*
X154196092Y-78414992D01*
X153029102Y-79414992D02*
X152030082Y-79414992D01*
X153029102Y-78748976D02*
X152863082Y-78748976D01*
X151030082Y-79248000D02*
X151363082Y-79248000D01*
X152863082Y-78748976D02*
X152863082Y-78914992D01*
X154362112Y-78414992D02*
X154362112Y-78748976D01*
X153529102Y-78248976D02*
X154196092Y-78248976D01*
X152529102Y-78914992D02*
X152529102Y-79081984D01*
X152363082Y-78581984D02*
X152030082Y-78581984D01*
X152529102Y-78748976D02*
X152696092Y-78748976D01*
X151030082Y-78748976D02*
X151030082Y-78414992D01*
X152030082Y-79414992D02*
X152030082Y-79081984D01*
X152863082Y-78248976D02*
X152863082Y-78414992D01*
X152196092Y-78414992D02*
X152196092Y-78248976D01*
X151030082Y-78914992D02*
X151030082Y-79248000D01*
X152696092Y-78414992D02*
X152363082Y-78414992D01*
X152030082Y-78414992D02*
X152196092Y-78414992D01*
X153696092Y-79248000D02*
X154362112Y-79248000D01*
X153696092Y-79081008D02*
X153696092Y-79248000D01*
X153862112Y-79081984D02*
X153696092Y-79081008D01*
X154196092Y-78414992D02*
X154362112Y-78414992D01*
X152363082Y-78414992D02*
X152363082Y-78581984D01*
X153862112Y-78914992D02*
X153862112Y-79081984D01*
X154196092Y-78914992D02*
X153862112Y-78914992D01*
X153529102Y-78414992D02*
X153529102Y-78248976D01*
X154362112Y-78748976D02*
X154196092Y-78748976D01*
X151363082Y-79248000D02*
X151363082Y-78748976D01*
X154196092Y-78748976D02*
X154196092Y-78914992D01*
X153363082Y-78414992D02*
X153529102Y-78414992D01*
X153363082Y-78581984D02*
X153363082Y-78414992D01*
X152196092Y-78914992D02*
X152529102Y-78914992D01*
X152863082Y-78414992D02*
X153029102Y-78414992D01*
X152363082Y-79248000D02*
X153029102Y-79248000D01*
X152363082Y-79081008D02*
X152363082Y-79248000D01*
X153029102Y-78414992D02*
X153029102Y-78748976D01*
X138866992Y-79414992D02*
X138200000Y-79414992D01*
X138700000Y-79248000D02*
X138866992Y-79248000D01*
X138700000Y-78414992D02*
X138700000Y-79248000D01*
X138366992Y-79248000D02*
X138366992Y-78581984D01*
X138200000Y-79248000D02*
X138366992Y-79248000D01*
X138200000Y-79414992D02*
X138200000Y-79248000D01*
X138866992Y-79248000D02*
X138866992Y-79414992D01*
X138200000Y-78414992D02*
X138700000Y-78414992D01*
X138200000Y-78581984D02*
X138200000Y-78414992D01*
X143366015Y-78748976D02*
X143532031Y-78748976D01*
X143532031Y-79248000D02*
X143366015Y-79248000D01*
X144199023Y-79414992D02*
X143532031Y-79414992D01*
X142366015Y-79248000D02*
X142366015Y-78581984D01*
X143532031Y-78748976D02*
X143532031Y-78581984D01*
X142866015Y-79248000D02*
X142866015Y-79414992D01*
X144199023Y-79248000D02*
X144199023Y-79414992D01*
X143699023Y-79081984D02*
X143699023Y-79248000D01*
X144365039Y-79081984D02*
X143699023Y-79081984D01*
X143366015Y-79248000D02*
X143366015Y-78748976D01*
X143699023Y-79248000D02*
X144199023Y-79248000D01*
X143532031Y-78581984D02*
X144199023Y-78581984D01*
X142699023Y-78414992D02*
X142699023Y-79248000D01*
X144199023Y-78581984D02*
X144199023Y-78748976D01*
X143532031Y-79414992D02*
X143532031Y-79248000D01*
X144365039Y-78748976D02*
X144365039Y-79081984D01*
X142199023Y-79248000D02*
X142366015Y-79248000D01*
X144199023Y-78748976D02*
X144365039Y-78748976D01*
X142366015Y-78581984D02*
X142199023Y-78581984D01*
X142199023Y-78414992D02*
X142699023Y-78414992D01*
X142199023Y-79414992D02*
X142199023Y-79248000D01*
X142699023Y-79248000D02*
X142866015Y-79248000D01*
X142866015Y-79414992D02*
X142199023Y-79414992D01*
X153529102Y-78914992D02*
X153862112Y-78914992D01*
X154362112Y-79248000D02*
X154362112Y-79414992D01*
X153363082Y-79081984D02*
X153529102Y-79081984D01*
X154029101Y-78414992D02*
X153696092Y-78414992D01*
X153529102Y-79081984D02*
X153529102Y-78914992D01*
X154362112Y-79414992D02*
X153363082Y-79414992D01*
X153363082Y-79414992D02*
X153363082Y-79081984D01*
X153862112Y-78748976D02*
X154029101Y-78748976D01*
X154029101Y-78748976D02*
X154029101Y-78414992D01*
X153696092Y-78581984D02*
X153363082Y-78581984D01*
X153696092Y-78414992D02*
X153696092Y-78581984D01*
X153862112Y-78914992D02*
X153862112Y-78748976D01*
X148031052Y-78414992D02*
X148031052Y-79248000D01*
X146365039Y-79081984D02*
X146365039Y-79248000D01*
X146865039Y-79414992D02*
X146198046Y-79414992D01*
X146365039Y-79248000D02*
X146865039Y-79248000D01*
X147531055Y-78414992D02*
X148031052Y-78414992D01*
X148198042Y-79414992D02*
X147531055Y-79414992D01*
X147531055Y-78581984D02*
X147531055Y-78414992D01*
X146198046Y-78581984D02*
X146865039Y-78581984D01*
X146365039Y-78914992D02*
X146365039Y-78748976D01*
X146198046Y-79248000D02*
X146032031Y-79248000D01*
X146198046Y-79414992D02*
X146198046Y-79248000D01*
X146865039Y-79248000D02*
X146865039Y-79414992D01*
X146698047Y-78914992D02*
X146365039Y-78914992D01*
X146365039Y-78748976D02*
X146698047Y-78748976D01*
X146698047Y-78748976D02*
X146698047Y-78914992D01*
X147031055Y-79081984D02*
X146365039Y-79081984D01*
X146865039Y-78748976D02*
X147031055Y-78748976D01*
X147031055Y-78748976D02*
X147031055Y-79081984D01*
X146865039Y-78581984D02*
X146865039Y-78748976D01*
X147531055Y-79248000D02*
X147698047Y-79248000D01*
X147531055Y-79414992D02*
X147531055Y-79248000D01*
X148198042Y-79248000D02*
X148198042Y-79414992D01*
X148031052Y-79248000D02*
X148198042Y-79248000D01*
X140033008Y-78748976D02*
X140033008Y-79248000D01*
X141366015Y-79414992D02*
X141366015Y-79248000D01*
X141366015Y-79248000D02*
X141199023Y-79248000D01*
X141699023Y-79414992D02*
X141366015Y-79414992D01*
X141866015Y-79081984D02*
X141699023Y-79081984D01*
X141866015Y-78581984D02*
X141866015Y-79081984D01*
X141533008Y-78914992D02*
X141533008Y-78581984D01*
X141199023Y-78748976D02*
X141366015Y-78748976D01*
X141366015Y-78748976D02*
X141366015Y-78914992D01*
X140866015Y-79414992D02*
X140866015Y-79081984D01*
X141199023Y-79414992D02*
X140866015Y-79414992D01*
X141199023Y-79248000D02*
X141199023Y-79414992D01*
X141699023Y-79081984D02*
X141699023Y-79414992D01*
X141033008Y-78914992D02*
X141199023Y-78914992D01*
X141033008Y-78581984D02*
X141033008Y-78914992D01*
X140700000Y-79081984D02*
X140700000Y-78581984D01*
X140033008Y-79248000D02*
X139700000Y-79248000D01*
X141533008Y-78581984D02*
X141866015Y-78581984D01*
X141366015Y-78914992D02*
X141533008Y-78914992D01*
X140700000Y-78581984D02*
X141033008Y-78581984D01*
X142199023Y-78581984D02*
X142199023Y-78414992D01*
X140866015Y-79081984D02*
X140700000Y-79081984D01*
X141199023Y-78914992D02*
X141199023Y-78748976D01*
X144865039Y-79248000D02*
X144865039Y-79081984D01*
X145032031Y-79248000D02*
X144865039Y-79248000D01*
X144032031Y-78748976D02*
X144032031Y-78914992D01*
X145365039Y-79248000D02*
X145365039Y-79414992D01*
X143699023Y-78914992D02*
X143699023Y-78748976D01*
X144699023Y-79081984D02*
X144699023Y-78581984D01*
X145698047Y-78581984D02*
X145698047Y-79081984D01*
X145032031Y-78581984D02*
X145032031Y-79081984D01*
X145365039Y-79414992D02*
X145032031Y-79414992D01*
X145032031Y-79414992D02*
X145032031Y-79248000D01*
X145532031Y-79248000D02*
X145365039Y-79248000D01*
X144699023Y-78581984D02*
X145032031Y-78581984D01*
X143699023Y-78748976D02*
X144032031Y-78748976D01*
X145365039Y-78581984D02*
X145698047Y-78581984D01*
X144865039Y-79081984D02*
X144699023Y-79081984D01*
X145032031Y-79081984D02*
X145365039Y-79081984D01*
X145532031Y-79081984D02*
X145532031Y-79248000D01*
X145698047Y-79081984D02*
X145532031Y-79081984D01*
X145365039Y-79081984D02*
X145365039Y-78581984D01*
X144032031Y-78914992D02*
X143699023Y-78914992D01*
X146198046Y-78748976D02*
X146198046Y-78581984D01*
X146032031Y-78748976D02*
X146198046Y-78748976D01*
X146032031Y-79248000D02*
X146032031Y-78748976D01*
X139700000Y-78748976D02*
X140033008Y-78748976D01*
X139700000Y-79248000D02*
X139700000Y-78748976D01*
D12*
X152570000Y-95130000D02*
X142070000Y-95130000D01*
X152570000Y-115690000D02*
X152570000Y-95130000D01*
X142070000Y-115690000D02*
X152570000Y-115690000D01*
X142070000Y-95130000D02*
X142070000Y-115690000D01*
X149570000Y-95190000D02*
X148320000Y-95190000D01*
X149570000Y-115630000D02*
X149570000Y-95190000D01*
X145070000Y-115630000D02*
X149570000Y-115630000D01*
X145070000Y-95190000D02*
X145070000Y-115630000D01*
X146320000Y-95190000D02*
X145070000Y-95190000D01*
X148320000Y-95190000D02*
G75*
G02*
X146320000Y-95190000I-1000000J0D01*
G01*
X133060000Y-78680000D02*
X128000000Y-78680000D01*
X133060000Y-129600000D02*
X133060000Y-78680000D01*
X120940000Y-129600000D02*
X133060000Y-129600000D01*
X120940000Y-78680000D02*
X120940000Y-129600000D01*
X126000000Y-78680000D02*
X120940000Y-78680000D01*
X128000000Y-78680000D02*
G75*
G02*
X126000000Y-78680000I-1000000J0D01*
G01*
X139870000Y-79890000D02*
X121750000Y-79890000D01*
X139870000Y-130930000D02*
X139870000Y-79890000D01*
X121750000Y-130930000D02*
X139870000Y-130930000D01*
X121750000Y-79890000D02*
X121750000Y-130930000D01*
X136870000Y-79950000D02*
X131810000Y-79950000D01*
X136870000Y-130870000D02*
X136870000Y-79950000D01*
X124750000Y-130870000D02*
X136870000Y-130870000D01*
X124750000Y-79950000D02*
X124750000Y-130870000D01*
X129810000Y-79950000D02*
X124750000Y-79950000D01*
X131810000Y-79950000D02*
G75*
G02*
X129810000Y-79950000I-1000000J0D01*
G01*
X151360000Y-120650000D02*
X150590000Y-120650000D01*
X143280000Y-120650000D02*
X144050000Y-120650000D01*
X150590000Y-119280000D02*
X144050000Y-119280000D01*
X150590000Y-122020000D02*
X150590000Y-119280000D01*
X144050000Y-122020000D02*
X150590000Y-122020000D01*
X144050000Y-119280000D02*
X144050000Y-122020000D01*
X142240000Y-124460000D02*
X143510000Y-124460000D01*
X142240000Y-125730000D02*
X142240000Y-124460000D01*
X144552929Y-128650000D02*
X144950000Y-128650000D01*
X144552929Y-127890000D02*
X144950000Y-127890000D01*
X153610000Y-128650000D02*
X147610000Y-128650000D01*
X153610000Y-127890000D02*
X153610000Y-128650000D01*
X147610000Y-127890000D02*
X153610000Y-127890000D01*
X144950000Y-127000000D02*
X147610000Y-127000000D01*
X144620000Y-126110000D02*
X144950000Y-126110000D01*
X144620000Y-125350000D02*
X144950000Y-125350000D01*
X147610000Y-126010000D02*
X153610000Y-126010000D01*
X147610000Y-125890000D02*
X153610000Y-125890000D01*
X147610000Y-125770000D02*
X153610000Y-125770000D01*
X147610000Y-125650000D02*
X153610000Y-125650000D01*
X147610000Y-125530000D02*
X153610000Y-125530000D01*
X147610000Y-125410000D02*
X153610000Y-125410000D01*
X153610000Y-126110000D02*
X147610000Y-126110000D01*
X153610000Y-125350000D02*
X153610000Y-126110000D01*
X147610000Y-125350000D02*
X153610000Y-125350000D01*
X147610000Y-124400000D02*
X144950000Y-124400000D01*
X147610000Y-129600000D02*
X147610000Y-124400000D01*
X144950000Y-129600000D02*
X147610000Y-129600000D01*
X144950000Y-124400000D02*
X144950000Y-129600000D01*
X142180000Y-82490000D02*
X143510000Y-82490000D01*
X142180000Y-83820000D02*
X142180000Y-82490000D01*
X142180000Y-85090000D02*
X144840000Y-85090000D01*
X144840000Y-85090000D02*
X144840000Y-90230000D01*
X142180000Y-85090000D02*
X142180000Y-90230000D01*
X142180000Y-90230000D02*
X144840000Y-90230000D01*
X145990000Y-82490000D02*
X147320000Y-82490000D01*
X145990000Y-83820000D02*
X145990000Y-82490000D01*
X145990000Y-85090000D02*
X148650000Y-85090000D01*
X148650000Y-85090000D02*
X148650000Y-90230000D01*
X145990000Y-85090000D02*
X145990000Y-90230000D01*
X145990000Y-90230000D02*
X148650000Y-90230000D01*
X149800000Y-82490000D02*
X151130000Y-82490000D01*
X149800000Y-83820000D02*
X149800000Y-82490000D01*
X149800000Y-85090000D02*
X152460000Y-85090000D01*
X152460000Y-85090000D02*
X152460000Y-90230000D01*
X149800000Y-85090000D02*
X149800000Y-90230000D01*
X149800000Y-90230000D02*
X152460000Y-90230000D01*
D13*
X146558095Y-93642380D02*
X146558095Y-94451904D01*
X146605714Y-94547142D01*
X146653333Y-94594761D01*
X146748571Y-94642380D01*
X146939047Y-94642380D01*
X147034285Y-94594761D01*
X147081904Y-94547142D01*
X147129523Y-94451904D01*
X147129523Y-93642380D01*
X147558095Y-93737619D02*
X147605714Y-93690000D01*
X147700952Y-93642380D01*
X147939047Y-93642380D01*
X148034285Y-93690000D01*
X148081904Y-93737619D01*
X148129523Y-93832857D01*
X148129523Y-93928095D01*
X148081904Y-94070952D01*
X147510476Y-94642380D01*
X148129523Y-94642380D01*
X130048095Y-78402380D02*
X130048095Y-79211904D01*
X130095714Y-79307142D01*
X130143333Y-79354761D01*
X130238571Y-79402380D01*
X130429047Y-79402380D01*
X130524285Y-79354761D01*
X130571904Y-79307142D01*
X130619523Y-79211904D01*
X130619523Y-78402380D01*
X131619523Y-79402380D02*
X131048095Y-79402380D01*
X131333809Y-79402380D02*
X131333809Y-78402380D01*
X131238571Y-78545238D01*
X131143333Y-78640476D01*
X131048095Y-78688095D01*
X147899523Y-118382380D02*
X147328095Y-118382380D01*
X147613809Y-118382380D02*
X147613809Y-117382380D01*
X147518571Y-117525238D01*
X147423333Y-117620476D01*
X147328095Y-117668095D01*
X148328095Y-118382380D02*
X148328095Y-117382380D01*
X148899523Y-118382380D02*
X148470952Y-117810952D01*
X148899523Y-117382380D02*
X148328095Y-117953809D01*
X149851904Y-118382380D02*
X149280476Y-118382380D01*
X149566190Y-118382380D02*
X149566190Y-117382380D01*
X149470952Y-117525238D01*
X149375714Y-117620476D01*
X149280476Y-117668095D01*
X146085476Y-122912380D02*
X146085476Y-123626666D01*
X146037857Y-123769523D01*
X145942619Y-123864761D01*
X145799761Y-123912380D01*
X145704523Y-123912380D01*
X146514047Y-123864761D02*
X146656904Y-123912380D01*
X146895000Y-123912380D01*
X146990238Y-123864761D01*
X147037857Y-123817142D01*
X147085476Y-123721904D01*
X147085476Y-123626666D01*
X147037857Y-123531428D01*
X146990238Y-123483809D01*
X146895000Y-123436190D01*
X146704523Y-123388571D01*
X146609285Y-123340952D01*
X146561666Y-123293333D01*
X146514047Y-123198095D01*
X146514047Y-123102857D01*
X146561666Y-123007619D01*
X146609285Y-122960000D01*
X146704523Y-122912380D01*
X146942619Y-122912380D01*
X147085476Y-122960000D01*
X147466428Y-123626666D02*
X147942619Y-123626666D01*
X147371190Y-123912380D02*
X147704523Y-122912380D01*
X148037857Y-123912380D01*
X148371190Y-123912380D02*
X148371190Y-122912380D01*
X148704523Y-123626666D01*
X149037857Y-122912380D01*
X149037857Y-123912380D01*
X150037857Y-123912380D02*
X149466428Y-123912380D01*
X149752142Y-123912380D02*
X149752142Y-122912380D01*
X149656904Y-123055238D01*
X149561666Y-123150476D01*
X149466428Y-123198095D01*
X143176666Y-80942380D02*
X143176666Y-81656666D01*
X143129047Y-81799523D01*
X143033809Y-81894761D01*
X142890952Y-81942380D01*
X142795714Y-81942380D01*
X143605238Y-81037619D02*
X143652857Y-80990000D01*
X143748095Y-80942380D01*
X143986190Y-80942380D01*
X144081428Y-80990000D01*
X144129047Y-81037619D01*
X144176666Y-81132857D01*
X144176666Y-81228095D01*
X144129047Y-81370952D01*
X143557619Y-81942380D01*
X144176666Y-81942380D01*
X146986666Y-80942380D02*
X146986666Y-81656666D01*
X146939047Y-81799523D01*
X146843809Y-81894761D01*
X146700952Y-81942380D01*
X146605714Y-81942380D01*
X147986666Y-81942380D02*
X147415238Y-81942380D01*
X147700952Y-81942380D02*
X147700952Y-80942380D01*
X147605714Y-81085238D01*
X147510476Y-81180476D01*
X147415238Y-81228095D01*
X150796666Y-80942380D02*
X150796666Y-81656666D01*
X150749047Y-81799523D01*
X150653809Y-81894761D01*
X150510952Y-81942380D01*
X150415714Y-81942380D01*
X151463333Y-80942380D02*
X151558571Y-80942380D01*
X151653809Y-80990000D01*
X151701428Y-81037619D01*
X151749047Y-81132857D01*
X151796666Y-81323333D01*
X151796666Y-81561428D01*
X151749047Y-81751904D01*
X151701428Y-81847142D01*
X151653809Y-81894761D01*
X151558571Y-81942380D01*
X151463333Y-81942380D01*
X151368095Y-81894761D01*
X151320476Y-81847142D01*
X151272857Y-81751904D01*
X151225238Y-81561428D01*
X151225238Y-81323333D01*
X151272857Y-81132857D01*
X151320476Y-81037619D01*
X151368095Y-80990000D01*
X151463333Y-80942380D01*
M02*
