G04 #@! TF.GenerationSoftware,KiCad,Pcbnew,(5.1.9)-1*
G04 #@! TF.CreationDate,2022-09-29T01:04:44-04:00*
G04 #@! TF.ProjectId,Cocoloca,436f636f-6c6f-4636-912e-6b696361645f,rev?*
G04 #@! TF.SameCoordinates,Original*
G04 #@! TF.FileFunction,Copper,L1,Top*
G04 #@! TF.FilePolarity,Positive*
%FSLAX46Y46*%
G04 Gerber Fmt 4.6, Leading zero omitted, Abs format (unit mm)*
G04 Created by KiCad (PCBNEW (5.1.9)-1) date 2022-09-29 01:04:44*
%MOMM*%
%LPD*%
G01*
G04 APERTURE LIST*
G04 #@! TA.AperFunction,ComponentPad*
%ADD10O,2.400000X1.600000*%
G04 #@! TD*
G04 #@! TA.AperFunction,ComponentPad*
%ADD11R,2.400000X1.600000*%
G04 #@! TD*
G04 #@! TA.AperFunction,ComponentPad*
%ADD12O,1.600000X1.600000*%
G04 #@! TD*
G04 #@! TA.AperFunction,ComponentPad*
%ADD13C,1.600000*%
G04 #@! TD*
G04 #@! TA.AperFunction,ComponentPad*
%ADD14O,1.700000X1.700000*%
G04 #@! TD*
G04 #@! TA.AperFunction,ComponentPad*
%ADD15R,1.700000X1.700000*%
G04 #@! TD*
G04 #@! TA.AperFunction,Conductor*
%ADD16C,0.250000*%
G04 #@! TD*
G04 APERTURE END LIST*
D10*
X151130000Y-96520000D03*
X143510000Y-114300000D03*
X151130000Y-99060000D03*
X143510000Y-111760000D03*
X151130000Y-101600000D03*
X143510000Y-109220000D03*
X151130000Y-104140000D03*
X143510000Y-106680000D03*
X151130000Y-106680000D03*
X143510000Y-104140000D03*
X151130000Y-109220000D03*
X143510000Y-101600000D03*
X151130000Y-111760000D03*
X143510000Y-99060000D03*
X151130000Y-114300000D03*
D11*
X143510000Y-96520000D03*
D10*
X134620000Y-80010000D03*
X119380000Y-128270000D03*
X134620000Y-82550000D03*
X119380000Y-125730000D03*
X134620000Y-85090000D03*
X119380000Y-123190000D03*
X134620000Y-87630000D03*
X119380000Y-120650000D03*
X134620000Y-90170000D03*
X119380000Y-118110000D03*
X134620000Y-92710000D03*
X119380000Y-115570000D03*
X134620000Y-95250000D03*
X119380000Y-113030000D03*
X134620000Y-97790000D03*
X119380000Y-110490000D03*
X134620000Y-100330000D03*
X119380000Y-107950000D03*
X134620000Y-102870000D03*
X119380000Y-105410000D03*
X134620000Y-105410000D03*
X119380000Y-102870000D03*
X134620000Y-107950000D03*
X119380000Y-100330000D03*
X134620000Y-110490000D03*
X119380000Y-97790000D03*
X134620000Y-113030000D03*
X119380000Y-95250000D03*
X134620000Y-115570000D03*
X119380000Y-92710000D03*
X134620000Y-118110000D03*
X119380000Y-90170000D03*
X134620000Y-120650000D03*
X119380000Y-87630000D03*
X134620000Y-123190000D03*
X119380000Y-85090000D03*
X134620000Y-125730000D03*
X119380000Y-82550000D03*
X134620000Y-128270000D03*
D11*
X119380000Y-80010000D03*
D10*
X138430000Y-81280000D03*
X123190000Y-129540000D03*
X138430000Y-83820000D03*
X123190000Y-127000000D03*
X138430000Y-86360000D03*
X123190000Y-124460000D03*
X138430000Y-88900000D03*
X123190000Y-121920000D03*
X138430000Y-91440000D03*
X123190000Y-119380000D03*
X138430000Y-93980000D03*
X123190000Y-116840000D03*
X138430000Y-96520000D03*
X123190000Y-114300000D03*
X138430000Y-99060000D03*
X123190000Y-111760000D03*
X138430000Y-101600000D03*
X123190000Y-109220000D03*
X138430000Y-104140000D03*
X123190000Y-106680000D03*
X138430000Y-106680000D03*
X123190000Y-104140000D03*
X138430000Y-109220000D03*
X123190000Y-101600000D03*
X138430000Y-111760000D03*
X123190000Y-99060000D03*
X138430000Y-114300000D03*
X123190000Y-96520000D03*
X138430000Y-116840000D03*
X123190000Y-93980000D03*
X138430000Y-119380000D03*
X123190000Y-91440000D03*
X138430000Y-121920000D03*
X123190000Y-88900000D03*
X138430000Y-124460000D03*
X123190000Y-86360000D03*
X138430000Y-127000000D03*
X123190000Y-83820000D03*
X138430000Y-129540000D03*
D11*
X123190000Y-81280000D03*
D12*
X152400000Y-120650000D03*
D13*
X142240000Y-120650000D03*
D14*
X143510000Y-128270000D03*
D15*
X143510000Y-125730000D03*
D14*
X143510000Y-88900000D03*
X143510000Y-86360000D03*
D15*
X143510000Y-83820000D03*
D14*
X147320000Y-88900000D03*
X147320000Y-86360000D03*
D15*
X147320000Y-83820000D03*
D14*
X151130000Y-88900000D03*
X151130000Y-86360000D03*
D15*
X151130000Y-83820000D03*
D16*
X123190000Y-106680000D02*
X123590000Y-106680000D01*
X151130000Y-88900000D02*
X147320000Y-92710000D01*
X147320000Y-92710000D02*
X147320000Y-97790000D01*
X148590000Y-99060000D02*
X151130000Y-99060000D01*
X147320000Y-97790000D02*
X148590000Y-99060000D01*
X138430000Y-104140000D02*
X140970000Y-101600000D01*
X140970000Y-91440000D02*
X143510000Y-88900000D01*
X140970000Y-101600000D02*
X140970000Y-91440000D01*
X151130000Y-86360000D02*
X153670000Y-88900000D01*
X152580000Y-111760000D02*
X151130000Y-111760000D01*
X153670000Y-110670000D02*
X152580000Y-111760000D01*
X153670000Y-88900000D02*
X153670000Y-110670000D01*
X143510000Y-83820000D02*
X142240000Y-83820000D01*
X142240000Y-83820000D02*
X140970000Y-85090000D01*
X135485994Y-89044990D02*
X133754006Y-89044990D01*
X136611004Y-90170000D02*
X135485994Y-89044990D01*
X139151004Y-90170000D02*
X136611004Y-90170000D01*
X140970000Y-88351004D02*
X139151004Y-90170000D01*
X133754006Y-89044990D02*
X132080000Y-90718996D01*
X140970000Y-85090000D02*
X140970000Y-88351004D01*
X132080000Y-90718996D02*
X132080000Y-120650000D01*
X130810000Y-121920000D02*
X123190000Y-121920000D01*
X132080000Y-120650000D02*
X130810000Y-121920000D01*
X146144999Y-87535001D02*
X146144999Y-107855001D01*
X147320000Y-86360000D02*
X146144999Y-87535001D01*
X144780000Y-109220000D02*
X143510000Y-109220000D01*
X146144999Y-107855001D02*
X144780000Y-109220000D01*
X143510000Y-101600000D02*
X145694989Y-99415011D01*
X145694989Y-99415011D02*
X145694989Y-87274989D01*
X144780000Y-86360000D02*
X143510000Y-86360000D01*
X145694989Y-87274989D02*
X144780000Y-86360000D01*
X138430000Y-114300000D02*
X139700000Y-114300000D01*
X139700000Y-114300000D02*
X140970000Y-113030000D01*
X140970000Y-113030000D02*
X140970000Y-105410000D01*
X142240000Y-104140000D02*
X143510000Y-104140000D01*
X140970000Y-105410000D02*
X142240000Y-104140000D01*
M02*
