%TF.GenerationSoftware,KiCad,Pcbnew,(5.1.9)-1*%
%TF.CreationDate,2022-09-27T04:16:08-04:00*%
%TF.ProjectId,Cocoloca,436f636f-6c6f-4636-912e-6b696361645f,rev?*%
%TF.SameCoordinates,Original*%
%TF.FileFunction,Copper,L1,Top*%
%TF.FilePolarity,Positive*%
%FSLAX46Y46*%
G04 Gerber Fmt 4.6, Leading zero omitted, Abs format (unit mm)*
G04 Created by KiCad (PCBNEW (5.1.9)-1) date 2022-09-27 04:16:08*
%MOMM*%
%LPD*%
G01*
G04 APERTURE LIST*
%TA.AperFunction,ComponentPad*%
%ADD10O,2.400000X1.600000*%
%TD*%
%TA.AperFunction,ComponentPad*%
%ADD11R,2.400000X1.600000*%
%TD*%
%TA.AperFunction,ComponentPad*%
%ADD12O,1.600000X1.600000*%
%TD*%
%TA.AperFunction,ComponentPad*%
%ADD13C,1.600000*%
%TD*%
%TA.AperFunction,ComponentPad*%
%ADD14O,1.700000X1.700000*%
%TD*%
%TA.AperFunction,ComponentPad*%
%ADD15R,1.700000X1.700000*%
%TD*%
%TA.AperFunction,Conductor*%
%ADD16C,0.250000*%
%TD*%
G04 APERTURE END LIST*
D10*
%TO.P,U2,16*%
%TO.N,VCC*%
X151130000Y-96520000D03*
%TO.P,U2,8*%
%TO.N,GND*%
X143510000Y-114300000D03*
%TO.P,U2,15*%
X151130000Y-99060000D03*
%TO.P,U2,7*%
%TO.N,Net-(U1-Pad29)*%
X143510000Y-111760000D03*
%TO.P,U2,14*%
%TO.N,Net-(U2-Pad14)*%
X151130000Y-101600000D03*
%TO.P,U2,6*%
%TO.N,TGM1*%
X143510000Y-109220000D03*
%TO.P,U2,13*%
%TO.N,Net-(U2-Pad13)*%
X151130000Y-104140000D03*
%TO.P,U2,5*%
%TO.N,Net-(COCOVDG1-Pad29)*%
X143510000Y-106680000D03*
%TO.P,U2,12*%
%TO.N,Net-(U2-Pad12)*%
X151130000Y-106680000D03*
%TO.P,U2,4*%
%TO.N,Net-(U1-Pad27)*%
X143510000Y-104140000D03*
%TO.P,U2,11*%
%TO.N,Net-(COCOVDG1-Pad30)*%
X151130000Y-109220000D03*
%TO.P,U2,3*%
%TO.N,TGM2*%
X143510000Y-101600000D03*
%TO.P,U2,10*%
%TO.N,TGM0*%
X151130000Y-111760000D03*
%TO.P,U2,2*%
%TO.N,Net-(COCOVDG1-Pad27)*%
X143510000Y-99060000D03*
%TO.P,U2,9*%
%TO.N,Net-(U1-Pad30)*%
X151130000Y-114300000D03*
D11*
%TO.P,U2,1*%
%TO.N,S35*%
X143510000Y-96520000D03*
%TD*%
D10*
%TO.P,COCOVDG1,40*%
%TO.N,S40*%
X134620000Y-80010000D03*
%TO.P,COCOVDG1,20*%
%TO.N,S20*%
X119380000Y-128270000D03*
%TO.P,COCOVDG1,39*%
%TO.N,S39*%
X134620000Y-82550000D03*
%TO.P,COCOVDG1,19*%
%TO.N,S19*%
X119380000Y-125730000D03*
%TO.P,COCOVDG1,38*%
%TO.N,S38*%
X134620000Y-85090000D03*
%TO.P,COCOVDG1,18*%
%TO.N,S18*%
X119380000Y-123190000D03*
%TO.P,COCOVDG1,37*%
%TO.N,S37*%
X134620000Y-87630000D03*
%TO.P,COCOVDG1,17*%
%TO.N,VCC*%
X119380000Y-120650000D03*
%TO.P,COCOVDG1,36*%
%TO.N,S36*%
X134620000Y-90170000D03*
%TO.P,COCOVDG1,16*%
%TO.N,S16*%
X119380000Y-118110000D03*
%TO.P,COCOVDG1,35*%
%TO.N,S35*%
X134620000Y-92710000D03*
%TO.P,COCOVDG1,15*%
%TO.N,S15*%
X119380000Y-115570000D03*
%TO.P,COCOVDG1,34*%
%TO.N,Net-(COCOVDG1-Pad34)*%
X134620000Y-95250000D03*
%TO.P,COCOVDG1,14*%
%TO.N,S14*%
X119380000Y-113030000D03*
%TO.P,COCOVDG1,33*%
%TO.N,S33*%
X134620000Y-97790000D03*
%TO.P,COCOVDG1,13*%
%TO.N,S13*%
X119380000Y-110490000D03*
%TO.P,COCOVDG1,32*%
%TO.N,Net-(COCOVDG1-Pad32)*%
X134620000Y-100330000D03*
%TO.P,COCOVDG1,12*%
%TO.N,S12*%
X119380000Y-107950000D03*
%TO.P,COCOVDG1,31*%
%TO.N,Net-(COCOVDG1-Pad31)*%
X134620000Y-102870000D03*
%TO.P,COCOVDG1,11*%
%TO.N,S11*%
X119380000Y-105410000D03*
%TO.P,COCOVDG1,30*%
%TO.N,Net-(COCOVDG1-Pad30)*%
X134620000Y-105410000D03*
%TO.P,COCOVDG1,10*%
%TO.N,S10*%
X119380000Y-102870000D03*
%TO.P,COCOVDG1,29*%
%TO.N,Net-(COCOVDG1-Pad29)*%
X134620000Y-107950000D03*
%TO.P,COCOVDG1,9*%
%TO.N,S9*%
X119380000Y-100330000D03*
%TO.P,COCOVDG1,28*%
%TO.N,S28*%
X134620000Y-110490000D03*
%TO.P,COCOVDG1,8*%
%TO.N,S8*%
X119380000Y-97790000D03*
%TO.P,COCOVDG1,27*%
%TO.N,Net-(COCOVDG1-Pad27)*%
X134620000Y-113030000D03*
%TO.P,COCOVDG1,7*%
%TO.N,S7*%
X119380000Y-95250000D03*
%TO.P,COCOVDG1,26*%
%TO.N,S26*%
X134620000Y-115570000D03*
%TO.P,COCOVDG1,6*%
%TO.N,S6*%
X119380000Y-92710000D03*
%TO.P,COCOVDG1,25*%
%TO.N,S11*%
X134620000Y-118110000D03*
%TO.P,COCOVDG1,5*%
%TO.N,S5*%
X119380000Y-90170000D03*
%TO.P,COCOVDG1,24*%
%TO.N,S24*%
X134620000Y-120650000D03*
%TO.P,COCOVDG1,4*%
%TO.N,S4*%
X119380000Y-87630000D03*
%TO.P,COCOVDG1,23*%
%TO.N,S23*%
X134620000Y-123190000D03*
%TO.P,COCOVDG1,3*%
%TO.N,S3*%
X119380000Y-85090000D03*
%TO.P,COCOVDG1,22*%
%TO.N,S22*%
X134620000Y-125730000D03*
%TO.P,COCOVDG1,2*%
%TO.N,S2*%
X119380000Y-82550000D03*
%TO.P,COCOVDG1,21*%
%TO.N,S21*%
X134620000Y-128270000D03*
D11*
%TO.P,COCOVDG1,1*%
%TO.N,GND*%
X119380000Y-80010000D03*
%TD*%
D10*
%TO.P,U1,40*%
%TO.N,S40*%
X138430000Y-81280000D03*
%TO.P,U1,20*%
%TO.N,S20*%
X123190000Y-129540000D03*
%TO.P,U1,39*%
%TO.N,S39*%
X138430000Y-83820000D03*
%TO.P,U1,19*%
%TO.N,S19*%
X123190000Y-127000000D03*
%TO.P,U1,38*%
%TO.N,S38*%
X138430000Y-86360000D03*
%TO.P,U1,18*%
%TO.N,S18*%
X123190000Y-124460000D03*
%TO.P,U1,37*%
%TO.N,S37*%
X138430000Y-88900000D03*
%TO.P,U1,17*%
%TO.N,VCC*%
X123190000Y-121920000D03*
%TO.P,U1,36*%
%TO.N,S36*%
X138430000Y-91440000D03*
%TO.P,U1,16*%
%TO.N,S16*%
X123190000Y-119380000D03*
%TO.P,U1,35*%
%TO.N,S35*%
X138430000Y-93980000D03*
%TO.P,U1,15*%
%TO.N,S15*%
X123190000Y-116840000D03*
%TO.P,U1,34*%
%TO.N,Net-(U1-Pad34)*%
X138430000Y-96520000D03*
%TO.P,U1,14*%
%TO.N,S14*%
X123190000Y-114300000D03*
%TO.P,U1,33*%
%TO.N,S33*%
X138430000Y-99060000D03*
%TO.P,U1,13*%
%TO.N,SAM12*%
X123190000Y-111760000D03*
%TO.P,U1,32*%
%TO.N,Net-(U1-Pad32)*%
X138430000Y-101600000D03*
%TO.P,U1,12*%
%TO.N,SAM10*%
X123190000Y-109220000D03*
%TO.P,U1,31*%
%TO.N,GND*%
X138430000Y-104140000D03*
%TO.P,U1,11*%
%TO.N,S11*%
X123190000Y-106680000D03*
%TO.P,U1,30*%
%TO.N,Net-(U1-Pad30)*%
X138430000Y-106680000D03*
%TO.P,U1,10*%
%TO.N,S10*%
X123190000Y-104140000D03*
%TO.P,U1,29*%
%TO.N,Net-(U1-Pad29)*%
X138430000Y-109220000D03*
%TO.P,U1,9*%
%TO.N,S9*%
X123190000Y-101600000D03*
%TO.P,U1,28*%
%TO.N,S28*%
X138430000Y-111760000D03*
%TO.P,U1,8*%
%TO.N,S8*%
X123190000Y-99060000D03*
%TO.P,U1,27*%
%TO.N,Net-(U1-Pad27)*%
X138430000Y-114300000D03*
%TO.P,U1,7*%
%TO.N,S7*%
X123190000Y-96520000D03*
%TO.P,U1,26*%
%TO.N,S26*%
X138430000Y-116840000D03*
%TO.P,U1,6*%
%TO.N,S6*%
X123190000Y-93980000D03*
%TO.P,U1,25*%
%TO.N,Net-(1K1-Pad1)*%
X138430000Y-119380000D03*
%TO.P,U1,5*%
%TO.N,S5*%
X123190000Y-91440000D03*
%TO.P,U1,24*%
%TO.N,S24*%
X138430000Y-121920000D03*
%TO.P,U1,4*%
%TO.N,S4*%
X123190000Y-88900000D03*
%TO.P,U1,23*%
%TO.N,S23*%
X138430000Y-124460000D03*
%TO.P,U1,3*%
%TO.N,S3*%
X123190000Y-86360000D03*
%TO.P,U1,22*%
%TO.N,S22*%
X138430000Y-127000000D03*
%TO.P,U1,2*%
%TO.N,S2*%
X123190000Y-83820000D03*
%TO.P,U1,21*%
%TO.N,S21*%
X138430000Y-129540000D03*
D11*
%TO.P,U1,1*%
%TO.N,GND*%
X123190000Y-81280000D03*
%TD*%
D12*
%TO.P,1K1,2*%
%TO.N,S11*%
X152400000Y-120650000D03*
D13*
%TO.P,1K1,1*%
%TO.N,Net-(1K1-Pad1)*%
X142240000Y-120650000D03*
%TD*%
D14*
%TO.P,JSAM1,2*%
%TO.N,SAM12*%
X143510000Y-128270000D03*
D15*
%TO.P,JSAM1,1*%
%TO.N,SAM10*%
X143510000Y-125730000D03*
%TD*%
D14*
%TO.P,J2,3*%
%TO.N,GND*%
X143510000Y-88900000D03*
%TO.P,J2,2*%
%TO.N,TGM2*%
X143510000Y-86360000D03*
D15*
%TO.P,J2,1*%
%TO.N,VCC*%
X143510000Y-83820000D03*
%TD*%
D14*
%TO.P,J1,3*%
%TO.N,GND*%
X147320000Y-88900000D03*
%TO.P,J1,2*%
%TO.N,TGM1*%
X147320000Y-86360000D03*
D15*
%TO.P,J1,1*%
%TO.N,VCC*%
X147320000Y-83820000D03*
%TD*%
D14*
%TO.P,J0,3*%
%TO.N,GND*%
X151130000Y-88900000D03*
%TO.P,J0,2*%
%TO.N,TGM0*%
X151130000Y-86360000D03*
D15*
%TO.P,J0,1*%
%TO.N,VCC*%
X151130000Y-83820000D03*
%TD*%
D16*
%TO.N,S11*%
X123190000Y-106680000D02*
X123590000Y-106680000D01*
%TO.N,GND*%
X151130000Y-88900000D02*
X147320000Y-92710000D01*
X147320000Y-92710000D02*
X147320000Y-97790000D01*
X148590000Y-99060000D02*
X151130000Y-99060000D01*
X147320000Y-97790000D02*
X148590000Y-99060000D01*
X138430000Y-104140000D02*
X140970000Y-101600000D01*
X140970000Y-91440000D02*
X143510000Y-88900000D01*
X140970000Y-101600000D02*
X140970000Y-91440000D01*
%TO.N,TGM0*%
X151130000Y-86360000D02*
X153670000Y-88900000D01*
X152580000Y-111760000D02*
X151130000Y-111760000D01*
X153670000Y-110670000D02*
X152580000Y-111760000D01*
X153670000Y-88900000D02*
X153670000Y-110670000D01*
%TO.N,VCC*%
X143510000Y-83820000D02*
X142240000Y-83820000D01*
X142240000Y-83820000D02*
X140970000Y-85090000D01*
X135485994Y-89044990D02*
X133754006Y-89044990D01*
X136611004Y-90170000D02*
X135485994Y-89044990D01*
X139151004Y-90170000D02*
X136611004Y-90170000D01*
X140970000Y-88351004D02*
X139151004Y-90170000D01*
X133754006Y-89044990D02*
X132080000Y-90718996D01*
X140970000Y-85090000D02*
X140970000Y-88351004D01*
X132080000Y-90718996D02*
X132080000Y-120650000D01*
X130810000Y-121920000D02*
X123190000Y-121920000D01*
X132080000Y-120650000D02*
X130810000Y-121920000D01*
%TO.N,TGM1*%
X146144999Y-87535001D02*
X146144999Y-107855001D01*
X147320000Y-86360000D02*
X146144999Y-87535001D01*
X144780000Y-109220000D02*
X143510000Y-109220000D01*
X146144999Y-107855001D02*
X144780000Y-109220000D01*
%TO.N,TGM2*%
X143510000Y-101600000D02*
X145694989Y-99415011D01*
X145694989Y-99415011D02*
X145694989Y-87274989D01*
X144780000Y-86360000D02*
X143510000Y-86360000D01*
X145694989Y-87274989D02*
X144780000Y-86360000D01*
%TO.N,Net-(U1-Pad27)*%
X138430000Y-114300000D02*
X139700000Y-114300000D01*
X139700000Y-114300000D02*
X140970000Y-113030000D01*
X140970000Y-113030000D02*
X140970000Y-105410000D01*
X142240000Y-104140000D02*
X143510000Y-104140000D01*
X140970000Y-105410000D02*
X142240000Y-104140000D01*
%TD*%
M02*
