M48
INCH,TZ
T1C0.0315
T2C0.0394
%
G90
G05
T1
X44500Y-38000
X44500Y-39000
X44500Y-40000
X44500Y-41000
X44500Y-42000
X44500Y-43000
X44500Y-44000
X44500Y-45000
X44500Y-46000
X44500Y-47000
X44500Y-48000
X44500Y-49000
X44500Y-50000
X44500Y-51000
X44500Y-52000
X44500Y-53000
X44500Y-54000
X44500Y-55000
X44500Y-56000
X44500Y-57000
X46000Y-38000
X46000Y-39000
X46000Y-40000
X46000Y-41000
X46000Y-42000
X46000Y-43000
X46000Y-44000
X46000Y-45000
X46000Y-46000
X46000Y-47000
X46000Y-48000
X46000Y-49000
X46000Y-50000
X46000Y-51000
X46000Y-52000
X46000Y-53000
X46000Y-54000
X46000Y-55000
X46000Y-56000
X46000Y-57000
X50500Y-38000
X50500Y-39000
X50500Y-40000
X50500Y-41000
X50500Y-42000
X50500Y-43000
X50500Y-44000
X50500Y-45000
X50500Y-46000
X50500Y-47000
X50500Y-48000
X50500Y-49000
X50500Y-50000
X50500Y-51000
X50500Y-52000
X50500Y-53000
X50500Y-54000
X50500Y-55000
X50500Y-56000
X50500Y-57000
X52000Y-38000
X52000Y-39000
X52000Y-40000
X52000Y-41000
X52000Y-42000
X52000Y-43000
X52000Y-44000
X52000Y-45000
X52000Y-46000
X52000Y-47000
X52000Y-48000
X52000Y-49000
X52000Y-50000
X52000Y-51000
X52000Y-52000
X52000Y-53000
X52000Y-54000
X52000Y-55000
X52000Y-56000
X52000Y-57000
T2
X49000Y-35500
X49000Y-36500
T0
M30
