G04 #@! TF.GenerationSoftware,KiCad,Pcbnew,(5.1.9)-1*
G04 #@! TF.CreationDate,2022-09-29T02:40:57-04:00*
G04 #@! TF.ProjectId,Cocoloca-samtap,436f636f-6c6f-4636-912d-73616d746170,rev?*
G04 #@! TF.SameCoordinates,Original*
G04 #@! TF.FileFunction,Copper,L1,Top*
G04 #@! TF.FilePolarity,Positive*
%FSLAX46Y46*%
G04 Gerber Fmt 4.6, Leading zero omitted, Abs format (unit mm)*
G04 Created by KiCad (PCBNEW (5.1.9)-1) date 2022-09-29 02:40:57*
%MOMM*%
%LPD*%
G01*
G04 APERTURE LIST*
G04 #@! TA.AperFunction,ComponentPad*
%ADD10O,2.400000X1.600000*%
G04 #@! TD*
G04 #@! TA.AperFunction,ComponentPad*
%ADD11R,2.400000X1.600000*%
G04 #@! TD*
G04 #@! TA.AperFunction,ComponentPad*
%ADD12O,1.700000X1.700000*%
G04 #@! TD*
G04 #@! TA.AperFunction,ComponentPad*
%ADD13R,1.700000X1.700000*%
G04 #@! TD*
G04 APERTURE END LIST*
D10*
X132080000Y-96520000D03*
X116840000Y-144780000D03*
X132080000Y-99060000D03*
X116840000Y-142240000D03*
X132080000Y-101600000D03*
X116840000Y-139700000D03*
X132080000Y-104140000D03*
X116840000Y-137160000D03*
X132080000Y-106680000D03*
X116840000Y-134620000D03*
X132080000Y-109220000D03*
X116840000Y-132080000D03*
X132080000Y-111760000D03*
X116840000Y-129540000D03*
X132080000Y-114300000D03*
X116840000Y-127000000D03*
X132080000Y-116840000D03*
X116840000Y-124460000D03*
X132080000Y-119380000D03*
X116840000Y-121920000D03*
X132080000Y-121920000D03*
X116840000Y-119380000D03*
X132080000Y-124460000D03*
X116840000Y-116840000D03*
X132080000Y-127000000D03*
X116840000Y-114300000D03*
X132080000Y-129540000D03*
X116840000Y-111760000D03*
X132080000Y-132080000D03*
X116840000Y-109220000D03*
X132080000Y-134620000D03*
X116840000Y-106680000D03*
X132080000Y-137160000D03*
X116840000Y-104140000D03*
X132080000Y-139700000D03*
X116840000Y-101600000D03*
X132080000Y-142240000D03*
X116840000Y-99060000D03*
X132080000Y-144780000D03*
D11*
X116840000Y-96520000D03*
D10*
X128270000Y-96520000D03*
X113030000Y-144780000D03*
X128270000Y-99060000D03*
X113030000Y-142240000D03*
X128270000Y-101600000D03*
X113030000Y-139700000D03*
X128270000Y-104140000D03*
X113030000Y-137160000D03*
X128270000Y-106680000D03*
X113030000Y-134620000D03*
X128270000Y-109220000D03*
X113030000Y-132080000D03*
X128270000Y-111760000D03*
X113030000Y-129540000D03*
X128270000Y-114300000D03*
X113030000Y-127000000D03*
X128270000Y-116840000D03*
X113030000Y-124460000D03*
X128270000Y-119380000D03*
X113030000Y-121920000D03*
X128270000Y-121920000D03*
X113030000Y-119380000D03*
X128270000Y-124460000D03*
X113030000Y-116840000D03*
X128270000Y-127000000D03*
X113030000Y-114300000D03*
X128270000Y-129540000D03*
X113030000Y-111760000D03*
X128270000Y-132080000D03*
X113030000Y-109220000D03*
X128270000Y-134620000D03*
X113030000Y-106680000D03*
X128270000Y-137160000D03*
X113030000Y-104140000D03*
X128270000Y-139700000D03*
X113030000Y-101600000D03*
X128270000Y-142240000D03*
X113030000Y-99060000D03*
X128270000Y-144780000D03*
D11*
X113030000Y-96520000D03*
D12*
X124460000Y-90170000D03*
D13*
X124460000Y-92710000D03*
M02*
